<?xml version="1.0" encoding="UTF-8"?>
<svg id="_레이어_2" data-name="레이어 2" xmlns="http://www.w3.org/2000/svg" viewBox="0 0 276.52 104">
  <defs>
    <style>
      .cls-1 {
        fill: #c2251f;
      }

      .cls-2 {
        fill: #fff;
      }
    </style>
  </defs>
  <g id="Layer_1" data-name="Layer 1">
    <g>
      <rect class="cls-1" width="276.52" height="104" rx="11.68" ry="11.68"/>
      <g>
        <path class="cls-2" d="M213.55,29.51c-11.45-5.51-26.62-8.55-42.7-8.55s-31.25,3.04-42.71,8.55c-12.1,5.82-18.77,13.81-18.77,22.49s6.66,16.66,18.77,22.49c11.45,5.51,26.62,8.55,42.71,8.55s31.25-3.04,42.7-8.55c12.11-5.82,18.77-13.81,18.77-22.49s-6.66-16.67-18.77-22.49ZM170.84,80.24c-32.41,0-58.68-12.64-58.68-28.24s26.27-28.25,58.68-28.25,58.68,12.65,58.68,28.25-26.27,28.24-58.68,28.24Z"/>
        <path class="cls-2" d="M180.18,56.32c-.28-.71-.63-1.3-1.07-1.78-.44-.47-.93-.83-1.48-1.07-.55-.24-1.1-.37-1.65-.37s-1.1.12-1.64.37c-.54.25-1.03.61-1.47,1.09-.44.48-.8,1.08-1.07,1.81-.27.72-.4,1.58-.4,2.56,0,4.2-.01,8.39-.02,12.59,0,.96.14,1.81.41,2.55.27.74.63,1.35,1.08,1.83.45.47.95.83,1.51,1.07.56.23,1.13.34,1.69.32.57-.03,1.13-.17,1.69-.45.56-.28,1.06-.67,1.5-1.18.44-.5.8-1.13,1.06-1.87.27-.75.4-1.6.39-2.54-.04-4.13-.07-8.27-.11-12.39,0-.97-.15-1.81-.43-2.52ZM177.39,73.24c-.37.4-.81.62-1.32.63-.52.02-.96-.17-1.33-.55-.37-.38-.56-.99-.56-1.82-.01-4.2-.02-8.39-.03-12.58,0-.83.19-1.44.55-1.83.37-.39.8-.58,1.3-.59.5,0,.94.19,1.31.58.37.38.55.99.56,1.8.03,4.17.05,8.34.08,12.51,0,.82-.18,1.43-.55,1.84Z"/>
        <path class="cls-2" d="M144.8,53.28c-.89,0-1.78,0-2.67,0-.06,2.7-.13,5.39-.19,8.09-1.3,3.52-2.59,6.81-3.86,9.83.92.34,1.85.65,2.78.95.76-2.27,1.53-4.64,2.3-7.1.02,0,.04,0,.05,0,.65,2.72,1.31,5.52,1.96,8.38.94.26,1.89.5,2.84.72-1.15-4.31-2.28-8.47-3.41-12.45.06-2.81.12-5.61.19-8.42Z"/>
        <path class="cls-2" d="M160.21,49.4c.78-1.1,1.16-2.68,1.14-4.74,0-.44-.01-.88-.01-1.31-.02-1.24-.17-2.21-.48-2.93-.31-.72-.78-1.25-1.42-1.57.3-.24.56-.49.79-.76.23-.26.42-.56.57-.91.15-.34.27-.73.35-1.17.07-.45.11-.99.1-1.62,0-.28,0-.56,0-.85-.01-.77-.1-1.5-.28-2.2-.18-.7-.47-1.3-.86-1.81-.4-.5-.91-.88-1.53-1.13-.62-.25-1.37-.3-2.24-.17-1.33.2-2.65.43-3.96.68.14,7.38.28,14.75.43,22.13,1.21,0,2.42,0,3.64,0,1.74,0,3.01-.54,3.78-1.64ZM155.12,31.48c.37-.05.74-.11,1.12-.16.91-.12,1.53.07,1.89.55.36.48.53,1.24.55,2.29.01,1.06-.13,1.88-.43,2.45-.3.58-.9.9-1.8.98-.41.04-.81.08-1.22.12-.03-2.07-.07-4.15-.11-6.23ZM158.78,45.39c-.03.47-.12.89-.27,1.24-.15.35-.38.63-.69.83-.3.19-.73.3-1.27.32-.39,0-.77.02-1.16.03-.04-2.41-.09-4.82-.12-7.24.39-.03.79-.06,1.19-.09.49-.04.89.02,1.19.14.3.13.54.34.71.62.17.29.28.64.34,1.07.06.43.09.94.1,1.52,0,.56,0,1.09-.03,1.57Z"/>
        <path class="cls-2" d="M166.08,60.21c-.49,1.11-.98,2.21-1.48,3.29-.99-3.44-1.97-6.85-2.94-10.2-.94,0-1.88,0-2.83,0,1.37,4.46,2.76,9.04,4.17,13.7-1.26,2.97-2.53,5.88-3.82,8.69.91.13,1.82.25,2.73.35,1.37-3.31,2.73-6.71,4.07-10.18h.05c-.02,3.52-.05,7.03-.07,10.55.91.06,1.82.11,2.74.15.03-7.75.06-15.5.09-23.24h-2.67c-.01,2.3-.03,4.6-.05,6.9Z"/>
        <path class="cls-2" d="M173.29,51.23c.85,0,1.58-.18,2.17-.53.6-.36,1.07-.84,1.44-1.45.36-.61.62-1.33.79-2.18.17-.85.25-1.77.26-2.77,0-.86-.03-1.63-.09-2.31-.06-.68-.2-1.28-.39-1.81-.2-.52-.48-.99-.85-1.39-.37-.4-.85-.75-1.45-1.06-.69-.36-1.38-.72-2.07-1.08-.35-.18-.63-.36-.84-.55-.2-.18-.36-.39-.47-.62-.11-.23-.17-.51-.2-.84-.03-.33-.04-.73-.04-1.2,0-.4.03-.79.08-1.16.05-.36.15-.69.28-.97.14-.28.32-.51.56-.68.24-.18.55-.27.93-.25.69.02,1.19.32,1.48.9.29.57.44,1.26.43,2.04,0,.25,0,.51,0,.76.91.04,1.81.08,2.72.13,0-.55,0-1.11.01-1.66,0-.67-.1-1.32-.3-1.96-.21-.64-.52-1.23-.91-1.77-.4-.54-.88-.97-1.44-1.32-.56-.34-1.18-.52-1.86-.54-.79-.02-1.48.14-2.08.49-.59.34-1.08.81-1.46,1.39-.38.58-.67,1.28-.87,2.09-.19.8-.29,1.66-.29,2.56,0,1.49.21,2.73.61,3.73.4.99,1.18,1.78,2.35,2.4.64.34,1.29.68,1.93,1.02.33.18.6.36.8.52.2.16.36.37.47.61.11.25.19.58.22.97.03.4.05.91.04,1.54,0,.54-.02,1.03-.06,1.47-.04.45-.13.82-.26,1.12-.13.3-.32.53-.58.7-.26.17-.61.25-1.06.25-.68,0-1.17-.26-1.46-.76-.29-.5-.43-1.07-.43-1.7v-1.07c-.9,0-1.79,0-2.69,0,0,.43,0,.85,0,1.27,0,.81.12,1.55.36,2.24.24.7.56,1.29.96,1.79.4.5.88.9,1.44,1.19.56.29,1.16.43,1.8.43Z"/>
        <path class="cls-2" d="M148.03,56.2c1.76.07,3.53.14,5.29.18-.11,6.17-.23,12.34-.35,18.52.9.18,1.81.34,2.71.49.12-7.36.24-14.73.36-22.09-2.65,0-5.3,0-7.95-.01-.02.97-.04,1.95-.06,2.92Z"/>
        <path class="cls-2" d="M208.76,51.09c.89,0,1.78,0,2.67,0,.04-4.32.09-8.65.14-12.97.99.4,1.97.81,2.95,1.23v-1.83c-2.78-1.4-5.61-2.66-8.48-3.78-.02.78-.03,1.56-.05,2.34,1.01.34,2,.69,3,1.06-.07,4.65-.15,9.3-.22,13.95Z"/>
        <path class="cls-2" d="M166.68,51.03c-.04-7.94-.08-15.87-.12-23.8-.91.04-1.83.1-2.74.16.06,7.88.13,15.76.19,23.64h2.67Z"/>
        <path class="cls-2" d="M133.68,63.15s-.03,0-.05-.02c-1.28-3.62-2.57-6.94-3.9-9.9-.84,0-1.67-.01-2.51-.01v13.59c.84.42,1.68.84,2.53,1.23.03-2.98.06-5.94.08-8.92.01,0,.04,0,.05,0,1.29,3.22,2.54,6.78,3.79,10.63.83.34,1.66.67,2.49.99.12-5.83.24-11.66.36-17.49-.89,0-1.78,0-2.67,0-.06,3.3-.12,6.59-.18,9.9Z"/>
        <path class="cls-2" d="M129.74,36.29c-.85.41-1.69.81-2.53,1.24v13.59c.89,0,1.78,0,2.67,0-.04-4.94-.09-9.88-.14-14.82Z"/>
        <path class="cls-2" d="M151.06,51.04c-.02-1.04-.04-2.07-.06-3.12-1.76.06-3.53.12-5.29.19-.05-2-.09-4-.14-6.01,1.53-.18,3.72-.44,5.26-.59-.02-.97-.05-1.94-.07-2.92-1.54.2-3.72.51-5.26.75-.05-2-.09-4.01-.14-6.01,1.76-.42,3.53-.79,5.31-1.12-.02-.98-.04-1.95-.06-2.93-2.68.57-5.34,1.26-7.98,2.06.16,6.58.31,13.15.47,19.73,2.65,0,5.3-.01,7.95-.02Z"/>
        <path class="cls-2" d="M139.68,49.93c.37-.4.66-.88.87-1.42.2-.54.3-1.11.28-1.7,0-.39-.02-.79-.03-1.17-.89.08-1.77.17-2.66.26,0,.3.02.6.02.89,0,.36-.04.66-.14.9-.1.25-.23.44-.39.58-.16.14-.34.25-.54.32-.2.07-.39.11-.56.12-.61.04-1.03-.11-1.27-.43-.24-.32-.36-.72-.38-1.21-.06-2.89-.11-5.77-.17-8.66-.01-.57.09-1.07.29-1.52.2-.45.63-.79,1.28-1,.49-.16.89-.11,1.19.17.3.28.45.69.46,1.19,0,.29.01.58.02.87.88-.23,1.76-.45,2.64-.65,0-.36-.02-.72-.03-1.07-.01-.66-.14-1.25-.37-1.74-.23-.5-.54-.88-.92-1.15-.38-.27-.84-.42-1.36-.45-.52-.03-1.07.07-1.67.31-.63.24-1.2.57-1.71.98-.52.41-.95.85-1.32,1.34-.37.48-.65.99-.84,1.51-.19.52-.29,1.04-.28,1.56.04,2.91.09,5.82.13,8.72.01.73.16,1.32.43,1.79.28.47.63.85,1.05,1.14.42.29.9.5,1.42.63.53.13,1.04.19,1.55.19.59,0,1.14-.11,1.65-.35.51-.23.95-.54,1.33-.95Z"/>
        <path class="cls-2" d="M196.52,50.86c.53-.24,1-.58,1.4-.99.4-.41.73-.89.97-1.43.24-.54.37-1.13.38-1.77.12-5.05.24-10.11.36-15.17-.89-.27-1.77-.53-2.66-.79-.12,5.16-.24,10.33-.36,15.48-.02.72-.19,1.25-.51,1.58-.32.33-.72.49-1.19.48-.47-.02-.86-.21-1.17-.58-.31-.37-.45-.93-.43-1.69.12-5.37.24-10.76.36-16.14-.9-.21-1.79-.42-2.69-.61-.11,5.63-.23,11.26-.34,16.9-.02.71.08,1.38.3,2,.21.62.51,1.16.89,1.61.39.47.83.83,1.35,1.08.52.27,1.07.39,1.67.39s1.15-.13,1.68-.37Z"/>
        <path class="cls-2" d="M207.1,54.43c-.77.8-1.15,2-1.12,3.52,0,.33.01.64.02.97.02.9.18,1.6.48,2.09.31.48.77.79,1.39.92-.29.22-.54.44-.76.67-.22.23-.41.49-.56.76-.15.27-.26.58-.33.93-.07.34-.1.74-.09,1.22,0,.21,0,.42.01.62.01.57.11,1.09.28,1.55.17.47.45.84.83,1.09.38.25.87.38,1.45.37.59,0,1.29-.2,2.11-.57,1.25-.56,2.48-1.15,3.71-1.77v-13.59c-1.21,0-2.42.01-3.63.01-1.74,0-3.01.38-3.78,1.19ZM211.97,66.04c-.35.15-.7.28-1.05.42-.86.34-1.46.38-1.79.13-.34-.25-.51-.74-.52-1.47-.01-.75.13-1.36.42-1.82.29-.46.88-.8,1.74-1.02.39-.1.78-.2,1.17-.31.01,1.36.03,2.72.04,4.07ZM211.91,60.09c-.38.08-.77.16-1.15.24-.48.1-.87.12-1.16.08-.29-.05-.52-.16-.69-.33-.17-.18-.28-.41-.34-.71-.06-.3-.09-.65-.09-1.06,0-.4,0-.76.03-1.11.03-.33.12-.63.27-.89.15-.25.38-.46.68-.62.3-.15.73-.24,1.26-.28.38-.03.76-.05,1.14-.08.02,1.58.03,3.16.04,4.75Z"/>
        <path class="cls-2" d="M201.02,53.27c.06,2.7.13,5.41.19,8.11-.53.08-1.06.14-1.59.22-.89-2.67-1.78-5.45-2.67-8.32-.94,0-1.89,0-2.82,0,1.02,3.17,2.05,6.26,3.08,9.21-.84.61-1.43,1.38-1.75,2.28-.32.91-.47,1.97-.45,3.18.08,4.08,1.71,5.78,4.84,4.83,1.42-.43,2.84-.89,4.25-1.38-.14-6.05-.27-12.09-.4-18.14-.9,0-1.78,0-2.67,0ZM200.02,70.09c-.48.13-.88.16-1.18.11-.3-.06-.54-.21-.71-.44-.17-.23-.29-.54-.35-.91-.06-.38-.1-.81-.11-1.32-.01-.51,0-.96.05-1.36.04-.39.14-.74.28-1.02.14-.29.35-.52.62-.71.28-.18.65-.32,1.12-.39.5-.08,1-.17,1.51-.26.04,1.97.09,3.95.13,5.93-.46.13-.92.25-1.38.37Z"/>
        <path class="cls-2" d="M201.75,51.08h2.67c.13-5.93.26-11.87.39-17.8-.87-.33-1.74-.64-2.62-.94-.14,6.24-.29,12.49-.44,18.74Z"/>
        <path class="cls-2" d="M191.43,56.03c-.28-.64-.63-1.18-1.07-1.61-.43-.43-.92-.76-1.46-.98-.53-.22-1.07-.34-1.61-.34s-1.07.12-1.6.35c-.53.23-1.01.58-1.43,1.03-.42.45-.76,1.03-1.01,1.73-.25.7-.38,1.51-.37,2.45.05,4,.1,8,.14,12,.01.91.16,1.72.43,2.38.27.68.63,1.21,1.08,1.61.44.4.94.67,1.48.83.55.15,1.1.18,1.64.09.55-.09,1.1-.3,1.63-.63.54-.33,1.01-.75,1.44-1.26.43-.52.77-1.13,1.02-1.84.25-.71.36-1.49.35-2.34-.07-3.74-.15-7.47-.22-11.21-.02-.87-.16-1.63-.44-2.26ZM188.89,71.68c-.36.41-.79.66-1.28.73-.5.07-.93-.05-1.29-.37-.37-.32-.56-.87-.57-1.65-.06-3.94-.12-7.88-.17-11.82,0-.78.16-1.35.51-1.72.35-.38.77-.57,1.27-.58.49-.01.92.15,1.28.5.36.35.55.9.57,1.65.07,3.83.13,7.66.2,11.5.01.76-.15,1.34-.51,1.75Z"/>
        <path class="cls-2" d="M185.79,50.8c.52-.28.97-.66,1.37-1.13.39-.46.7-1.01.93-1.63.24-.62.35-1.27.37-1.96,0-.46.02-.91.03-1.37-.9-.05-1.79-.09-2.68-.13,0,.37-.01.74-.02,1.12-.01.44-.07.82-.18,1.11-.11.29-.25.53-.42.69-.17.17-.36.29-.56.36-.2.07-.39.11-.57.1-.61-.01-1.03-.25-1.26-.71-.23-.46-.34-1.03-.33-1.71.06-3.95.11-7.9.16-11.84.01-.78.13-1.41.36-1.9.23-.48.68-.69,1.36-.61.51.06.92.35,1.21.86.3.51.44,1.08.42,1.71,0,.36,0,.72-.01,1.09.9.1,1.8.21,2.7.34,0-.42.02-.84.03-1.25.01-.76-.08-1.5-.29-2.19-.21-.69-.51-1.31-.88-1.84-.38-.54-.84-.98-1.37-1.33-.53-.35-1.1-.57-1.72-.66-.66-.09-1.26-.04-1.81.17-.55.21-1.02.53-1.42.98-.4.44-.71.98-.92,1.62-.22.64-.34,1.35-.34,2.12-.05,4.3-.09,8.61-.14,12.92-.01,1.08.11,1.97.38,2.67.27.71.61,1.27,1.02,1.7.41.43.88.73,1.4.91.52.17,1.04.26,1.54.26.6,0,1.15-.15,1.67-.43Z"/>
      </g>
      <g>
        <path class="cls-2" d="M265.94,46.85c0-.53-.43-.96-.96-.96h-9.48s-.19,0-.19,0h-.96c-.31,0-.57.26-.57.58s.26.57.57.58h0s.38,0,.38,0c-.21,0-.38.17-.38.38s.17.39.38.39h.58s.19,0,.19,0h9.48c.53,0,.96-.43.96-.97Z"/>
        <path class="cls-2" d="M265.94,75.09c0-.53-.43-.96-.96-.96h-8.3c-.43,0-.75-.11-.96-.34-.2-.23-.31-.51-.31-.85s.1-.62.31-.85c.21-.23.53-.34.96-.34h8.3c.53,0,.96-.43.96-.96s-.43-.96-.96-.96h-8.47c-.4,0-.77.08-1.11.25-.34.16-.64.39-.89.67-.27.28-.46.61-.61.99-.15.38-.23.78-.23,1.21s.08.83.23,1.21c.14.38.34.71.61.99.25.28.55.51.89.67.34.16.71.24,1.11.24h8.47c.53,0,.96-.43.96-.96Z"/>
        <path class="cls-2" d="M265,42.05c.28-.28.51-.63.69-1.06.17-.44.26-.96.26-1.58v-2.81s-12.16,0-12.16,0v2.62c0,1.26.28,2.17.85,2.74.57.57,1.38.86,2.46.86h.69c.63,0,1.14-.11,1.52-.32.38-.21.67-.54.87-1,.12.21.23.4.37.57.13.16.27.3.45.41.17.12.37.2.6.26.22.05.51.08.83.08h.44c.4,0,.79-.06,1.16-.18.37-.12.69-.32.98-.59ZM256.76,40.97c-.25-.03-.47-.09-.65-.21-.18-.11-.32-.28-.43-.5-.1-.22-.15-.52-.15-.91v-.83h3.89v.85c0,.35-.04.63-.12.84-.08.22-.2.38-.35.5-.15.12-.34.19-.57.23-.23.04-.5.05-.81.05s-.57-.01-.81-.04ZM261.39,40.68c-.29-.22-.43-.65-.43-1.29v-.87h3.35v.79c0,.64-.14,1.09-.41,1.33-.28.25-.68.37-1.23.37s-.98-.11-1.27-.33Z"/>
        <path class="cls-2" d="M253.91,22.87c.15.37.36.7.62.98.25.27.55.49.89.65.34.16.7.24,1.07.24h.75s0-1.92,0-1.92h-.6c-.24,0-.44-.04-.59-.11-.17-.07-.29-.17-.38-.29-.09-.12-.15-.25-.2-.4-.04-.14-.06-.28-.06-.4,0-.44.12-.75.36-.92.24-.17.53-.26.89-.26h6.22c.41,0,.74.08,1.02.24.27.16.4.47.4.95,0,.36-.12.65-.38.87-.25.21-.54.32-.89.32h-.58s-.41,0-.41,0h0c-.32,0-.57.26-.57.58s.25.57.57.57h0s.39,0,.39,0c-.22,0-.39.17-.39.38s.17.39.39.39h.03s.68,0,.68,0h.06s0,0,0,0c.39,0,.77-.09,1.11-.23.36-.16.66-.38.92-.65.26-.28.45-.61.6-.98.14-.38.22-.79.22-1.23,0-.46-.08-.89-.22-1.27-.14-.38-.34-.71-.58-.99-.25-.27-.55-.49-.89-.64-.35-.15-.71-.22-1.11-.22h-6.7c-.56,0-1.02.1-1.38.29-.37.2-.65.44-.88.75-.22.3-.38.64-.46,1.02-.09.37-.14.75-.14,1.11,0,.43.08.83.23,1.2Z"/>
        <polygon class="cls-2" points="255.53 33.52 255.53 29.72 259.09 29.72 259.09 33.52 260.73 33.52 260.73 29.72 264.3 29.72 264.3 33.52 265.94 33.52 265.94 27.8 253.78 27.8 253.78 33.52 255.53 33.52"/>
        <path class="cls-2" d="M253.78,14.08c0,.32.26.58.57.58h.38c-.21,0-.38.17-.38.38s.17.39.38.39h.58s.19,0,.19,0h9.48c.53,0,.96-.43.96-.96s-.43-.96-.96-.96h-9.48s-.19,0-.19,0h-.96c-.31,0-.57.26-.57.58Z"/>
        <path class="cls-2" d="M264.31,66.53c.36-.16.66-.38.92-.65.26-.28.45-.6.6-.98.14-.38.22-.79.22-1.23,0-.47-.08-.89-.22-1.27-.14-.39-.34-.71-.58-.99-.25-.28-.55-.49-.89-.64-.35-.16-.71-.23-1.11-.23h-6.7c-.56,0-1.02.1-1.38.29-.37.2-.65.44-.88.74-.22.31-.38.64-.46,1.02-.09.38-.14.74-.14,1.11,0,.42.08.83.23,1.2.15.37.36.7.62.97.25.28.55.49.89.65.34.15.7.23,1.07.23h.75s0-1.93,0-1.93h-.6c-.24,0-.44-.03-.59-.11-.17-.08-.29-.17-.38-.29-.09-.12-.15-.25-.2-.4-.04-.15-.06-.28-.06-.4,0-.44.12-.75.36-.92.24-.17.53-.26.89-.26h6.22c.41,0,.74.08,1.02.24.27.16.4.47.4.96,0,.36-.12.65-.38.87-.25.21-.54.32-.89.32h-.58s-.41,0-.41,0h0c-.32,0-.57.26-.57.58s.25.57.57.58h.39c-.22,0-.39.17-.39.39s.17.39.39.39h.02s.69,0,.69,0h.06c.4-.01.77-.09,1.11-.23Z"/>
        <path class="cls-2" d="M265.94,80.09c0-.53-.43-.96-.96-.96h-9.48s-.19,0-.19,0h-.96c-.31,0-.57.26-.57.58s.26.57.57.57h.38c-.21,0-.38.18-.38.39s.17.38.38.38h.58s.19,0,.19,0h9.48c.53,0,.96-.43.96-.96Z"/>
        <path class="cls-2" d="M265.17,56.61c.26-.28.47-.62.63-1.01.16-.4.24-.84.24-1.31,0-.55-.09-1.03-.27-1.45-.17-.42-.41-.76-.71-1.03-.29-.27-.64-.48-1.06-.61-.41-.14-.84-.21-1.3-.21-.76,0-1.39.14-1.9.43-.51.28-.91.84-1.22,1.66l-.51,1.38c-.1.24-.18.43-.26.58-.08.14-.18.26-.31.34-.13.08-.29.14-.5.16-.2.02-.46.04-.79.04-.27,0-.52-.01-.75-.04-.22-.03-.42-.08-.57-.18-.15-.09-.27-.23-.36-.41-.09-.18-.13-.44-.13-.76,0-.49.13-.84.38-1.04.26-.21.55-.32.86-.32h.55s0-1.92,0-1.92h-.65c-.41,0-.79.08-1.14.26-.35.17-.66.4-.91.69-.27.29-.46.63-.61,1.04-.15.4-.23.84-.23,1.3,0,.62.1,1.14.28,1.56.18.43.43.77.74,1.03.31.26.69.44,1.13.56.44.11.91.17,1.43.17.44,0,.84-.02,1.19-.08.35-.05.65-.14.92-.29.27-.15.51-.35.71-.61.2-.26.37-.61.52-1.04l.53-1.47c.09-.25.18-.45.27-.59.09-.15.19-.26.31-.33.12-.07.26-.12.43-.14.17-.02.37-.03.6-.03.21,0,.41.02.59.06.19.04.35.1.5.2.14.09.26.23.35.4.09.17.14.39.14.65,0,.49-.15.84-.43,1.04-.29.21-.63.31-1.03.31h-.39s0,0,0,0h-.39c-.32,0-.57.26-.57.57s.25.57.57.57h.39c-.22,0-.39.17-.39.39s.17.38.39.38h0s.76,0,.76,0h.1c.34,0,.67-.08,1-.22.32-.15.62-.37.88-.65Z"/>
        <path class="cls-2" d="M264.3,90.49h1.64s0-6.37,0-6.37h-1.64s0,2.22,0,2.22h-8.93s-1.02,0-1.02,0h0c-.31,0-.57.26-.57.58s.26.57.57.57h.38c-.21,0-.38.17-.38.38,0,.22.17.39.38.39h.77s8.8,0,8.8,0v2.22Z"/>
      </g>
    </g>
  </g>
</svg>