<?xml version="1.0" encoding="UTF-8"?>
<svg id="_레이어_2" data-name="레이어 2" xmlns="http://www.w3.org/2000/svg" viewBox="0 0 276.52 119">
  <defs>
    <style>
      .cls-1 {
        fill: #00489e;
      }

      .cls-2 {
        fill: #fff;
      }
    </style>
  </defs>
  <g id="Layer_1" data-name="Layer 1">
    <g>
      <rect class="cls-1" width="276.52" height="119" rx="11.68" ry="11.68"/>
      <g>
        <path class="cls-2" d="M263.77,13.23h-6.44c-2.18,0-3.33,1.13-3.33,2.91,0,1.9,1.3,2.97,3.59,2.97h6.18v.55h-6.18c-2.83,0-4.33-1.43-4.33-4.01s1.48-4.26,4.19-4.26h6.32v1.85Z"/>
        <path class="cls-2" d="M263.77,30.93h-10.32v-1.09l8.67-6.44h-8.67v-.55h10.32v1.55l-8.04,5.98h8.04v.55Z"/>
        <path class="cls-2" d="M263.77,37.23c0,4.12-1.93,6.26-5.17,6.26s-5.16-2.13-5.16-6.26v-3h10.32v3ZM263.3,36.07h-9.38v1.21c0,2.41,1.1,4.2,4.68,4.2s4.7-1.78,4.7-4.2v-1.21Z"/>
        <path class="cls-2" d="M263.77,46.18v6.72h-.47v-4.87h-4.3v4.28h-.49v-4.28h-4.59v5.01h-.47v-6.86h10.32Z"/>
        <path class="cls-2" d="M253.45,61.76l4.85-3.24v-1.11h-4.85v-1.85h10.32v2.55c0,2.61-.66,4.58-2.69,4.58-1.4,0-2.19-.91-2.49-2.35l-5.14,3.57v-2.14ZM261.05,60.73c1.69,0,2.26-.93,2.26-2.61v-.71h-4.53v.68c0,1.71.56,2.64,2.27,2.64Z"/>
        <path class="cls-2" d="M263.77,77.86l-10.32-3.24v-1.14l6.39-2.22-6.39-2.24v-1.14l10.32-3.24v2.05l-8.36,2.43,7.07,2.48v.77l-6.94,2.31,8.23,2.58v.6Z"/>
        <path class="cls-2" d="M263.77,80.06v6.72h-.47v-4.87h-4.3v4.28h-.49v-4.28h-4.59v5.01h-.47v-6.86h10.32Z"/>
        <path class="cls-2" d="M263.77,92.3v.83l-10.32,4.01v-2.03l3.56-1.34v-3.57l-3.56-1.36v-.58l10.32,4.04ZM257.91,93.44l3.79-1.43-3.79-1.46v2.89Z"/>
        <path class="cls-2" d="M253.45,105.48l4.85-3.24v-1.11h-4.85v-1.85h10.32v2.55c0,2.61-.66,4.58-2.69,4.58-1.4,0-2.19-.91-2.49-2.35l-5.14,3.57v-2.14ZM261.05,104.45c1.69,0,2.26-.93,2.26-2.61v-.71h-4.53v.68c0,1.7.56,2.64,2.27,2.64Z"/>
      </g>
      <g>
        <g>
          <path class="cls-2" d="M128.18,54.55c.32-2.13,1.11-3.97,3.06-3.68,1.26.19,1.85,1.39,1.82,2.81.33-1.61,1.33-2.98,3.08-2.72,2.14.32,2.4,2.51,2.03,5.01l-.38,2.58-9.98-1.49.37-2.51ZM128.53,55.34l4.08.61.05-.34c.26-1.74-.19-2.65-1.67-2.87-1.47-.22-2.15.52-2.41,2.26l-.05.34ZM137.71,55.95c.25-1.69,0-2.81-1.86-3.09-1.85-.28-2.43.73-2.68,2.41l-.11.74,4.54.68.11-.74Z"/>
          <path class="cls-2" d="M130.27,45.41l2.69-5.99.42.19-1.95,4.34,3.84,1.72,1.71-3.81.43.19-1.71,3.81,4.09,1.84,2.01-4.47.42.19-2.75,6.12-9.21-4.13Z"/>
          <path class="cls-2" d="M137.25,33.4c1.4-1.64,3.05-2.77,4.55-1.49.96.83.83,2.16.05,3.35,1.14-1.19,2.71-1.82,4.05-.67,1.65,1.41.7,3.4-.94,5.32l-1.69,1.98-7.67-6.57,1.65-1.93ZM137.13,34.26l3.14,2.69.23-.26c1.14-1.33,1.25-2.34.11-3.32-1.13-.97-2.1-.7-3.24.63l-.23.26ZM144.58,39.66c1.11-1.3,1.49-2.39.07-3.61-1.42-1.22-2.44-.68-3.55.62l-.48.56,3.49,2.99.48-.56Z"/>
          <path class="cls-2" d="M144.03,26.76l5.5-3.58.25.39-3.99,2.6,2.3,3.52,3.5-2.28.26.4-3.5,2.28,2.45,3.76,4.11-2.67.25.39-5.62,3.66-5.51-8.46Z"/>
          <path class="cls-2" d="M161.68,19.11c3.99-.58,6.33.98,6.78,4.12.46,3.13-1.33,5.29-5.33,5.87l-2.91.42-1.46-9.99,2.91-.42ZM160.63,19.73l1.32,9.08,1.17-.17c2.34-.34,3.91-1.66,3.4-5.12-.51-3.47-2.39-4.29-4.72-3.95l-1.17.17Z"/>
          <path class="cls-2" d="M172.85,18.59l6.47,1.1-.08.46-4.69-.8-.71,4.15,4.12.7-.08.47-4.12-.7-.75,4.42,4.83.82-.08.45-6.61-1.13,1.69-9.95Z"/>
          <path class="cls-2" d="M182.86,31.76l5.44-8.5,2.4,1.53c2.06,1.32,3.25,2.96,2.13,4.72-1.12,1.75-3.11,1.36-5.17.04l-.87-.56-2.39,3.74-1.52-.97ZM187.03,28.6l.78.5c1.53.98,2.56.71,3.41-.62.85-1.33.67-2.39-.86-3.37l-.78-.5-2.55,3.99Z"/>
          <path class="cls-2" d="M198.55,31.2l-7.15,7.12-1.28-1.28,7.15-7.12,1.28,1.28Z"/>
          <path class="cls-2" d="M206.06,41.78l-8.65,5.2-.55-.91,4.02-9.76-7.27,4.37-.28-.46,8.65-5.2.78,1.3-3.73,9.06,6.74-4.05.28.46Z"/>
          <path class="cls-2" d="M199.1,53.96c-.56-3.08,1.01-5.67,4.19-6.26,3.19-.58,5.58,1.29,6.14,4.37.56,3.09-1.01,5.67-4.2,6.26-3.18.58-5.57-1.28-6.13-4.37ZM209.06,52.14c-.33-1.79-1.96-3.1-5.41-2.47-3.44.63-4.5,2.43-4.17,4.22.33,1.82,1.95,3.11,5.4,2.48,3.46-.63,4.51-2.42,4.18-4.23Z"/>
          <path class="cls-2" d="M208.73,69.34l-6.02-1.83c-2.04-.62-3.44.11-3.94,1.77-.54,1.78.37,3.14,2.52,3.79l5.78,1.76-.16.51-5.78-1.76c-2.65-.81-3.64-2.57-2.9-4.99.75-2.45,2.6-3.56,5.13-2.79l5.91,1.8-.53,1.73Z"/>
          <path class="cls-2" d="M199.71,86.8l-8.16-5.94.63-.86,10.56-.1-6.85-4.99.32-.44,8.16,5.94-.89,1.22-9.8.1,6.35,4.63-.32.44Z"/>
          <path class="cls-2" d="M193.15,92.55c-3.32,2.28-6.11,1.91-7.91-.7-1.79-2.61-1.14-5.33,2.19-7.62l2.42-1.66,5.72,8.32-2.42,1.66ZM193.82,91.53l-5.19-7.56-.97.67c-1.95,1.34-2.77,3.21-.79,6.1,1.98,2.89,4.04,2.8,5.98,1.46l.97-.67Z"/>
          <path class="cls-2" d="M183.48,97.91l-6.29,1.88-.13-.44,4.56-1.37-1.21-4.03-4,1.2-.14-.45,4-1.2-1.29-4.3-4.69,1.41-.13-.44,6.42-1.93,2.9,9.66Z"/>
          <path class="cls-2" d="M166.36,90.4l3.18,4.74h1.09s-.01-4.75-.01-4.75h1.81s.03,10.09.03,10.09h-2.49c-2.55.01-4.48-.62-4.48-2.61,0-1.37.88-2.14,2.29-2.44l-3.5-5.02h2.09ZM167.39,97.82c0,1.65.92,2.2,2.56,2.2h.69s-.01-4.43-.01-4.43h-.67c-1.67,0-2.58.56-2.57,2.23Z"/>
          <path class="cls-2" d="M148.7,95.75l6.45-8.38,1.05.38-.11,6.61,4.21-5.11,1.05.38-.5,10.56-1.88-.69.58-8.49-4.65,5.66-.71-.26.21-7.14-5.14,6.68-.55-.2Z"/>
          <path class="cls-2" d="M144.83,92.82l-5.03-4.22.3-.35,3.65,3.06,2.7-3.22-3.2-2.69.3-.36,3.2,2.69,2.88-3.44-3.75-3.15.3-.35,5.14,4.31-6.49,7.73Z"/>
          <path class="cls-2" d="M135.13,82.75l-.45-.67,6.17-8.9,1.11,1.65-2.15,3.03,1.95,2.89,3.63-.84.32.47-10.57,2.37ZM139.26,78.62l-2.29,3.23,3.87-.89-1.58-2.34Z"/>
          <path class="cls-2" d="M138.58,66.1l-3.6,4.43.32,1.04,4.53-1.41.54,1.73-9.64,2.99-.74-2.38c-.76-2.44-.71-4.47,1.19-5.06,1.31-.41,2.31.21,3.01,1.47l3.77-4.82.62,2ZM131.78,69.27c-1.58.49-1.84,1.52-1.35,3.09l.21.66,4.23-1.31-.2-.64c-.49-1.59-1.29-2.3-2.88-1.81Z"/>
        </g>
        <path class="cls-2" d="M168.88,88.38c-15.92,0-28.88-12.95-28.88-28.88s12.95-28.88,28.88-28.88,28.88,12.95,28.88,28.88-12.95,28.88-28.88,28.88ZM168.88,31.3c-15.55,0-28.2,12.65-28.2,28.2s12.65,28.2,28.2,28.2,28.2-12.65,28.2-28.2-12.65-28.2-28.2-28.2Z"/>
        <path class="cls-2" d="M168.88,103.99c-24.53,0-44.49-19.96-44.49-44.49s19.96-44.49,44.49-44.49,44.49,19.96,44.49,44.49-19.96,44.49-44.49,44.49ZM168.88,15.69c-24.16,0-43.81,19.65-43.81,43.81s19.65,43.81,43.81,43.81,43.81-19.65,43.81-43.81-19.65-43.81-43.81-43.81Z"/>
      </g>
    </g>
  </g>
</svg>