<?xml version="1.0" encoding="UTF-8"?>
<svg id="_레이어_2" data-name="레이어 2" xmlns="http://www.w3.org/2000/svg" viewBox="0 0 276.52 104">
  <defs>
    <style>
      .cls-1 {
        fill: #ca271d;
      }

      .cls-2 {
        fill: #fff;
      }
    </style>
  </defs>
  <g id="Layer_1" data-name="Layer 1">
    <g>
      <rect class="cls-1" width="276.52" height="104" rx="11.68" ry="11.68"/>
      <path class="cls-2" d="M258.64,47.96h5.39c.3.01.54.26.54.55s-.23.54-.53.55h-5.39v-1.1h0ZM254.25,49.05v3.22h10.67c.58,0,1.05-.47,1.05-1.05v-5.43c0-.58-.47-1.05-1.05-1.05h-10.67v3.22h2.94v1.09h-2.94M259.19,18.9c-.33,0-.55-.26-.55-.55v-.55h5.93v.55c0,.28-.23.55-.55.55h-4.83ZM257.19,21.06c0,.58.47,1.05,1.05,1.05h6.67c.59,0,1.05-.45,1.05-1.03v-6.49h-11.72v3.21h2.94v3.26M265.97,37.73v-4.86c0-.58-.47-1.05-1.05-1.05h-10.66v3.22h9.79c.3,0,.54.25.54.55s-.23.54-.53.55h-9.79v3.21h9.79c.3,0,.53.25.53.55s-.24.54-.54.55h-9.79v3.22h10.66c.59,0,1.05-.47,1.05-1.04v-4.88h0ZM255.66,26.96c.01-.3.24-.55.54-.55h9.76s0-3.21,0-3.21h-10.76c-.53,0-.96.42-.96.94v5.63c0,.53.43.96.96.96h10.76v-3.22h-9.76c-.3,0-.53-.25-.54-.55M261.29,62.99l-6.94,4.09v-2.64l5.24-2.96-1.78-1.5h-3.46v-2.25h11.52v2.25h-5.02l5.02,4.08v2.75l-4.58-3.82ZM254.35,70.22v-2.25h11.52v2.25h-11.52ZM261.41,80.46c.39-.01.75-.04,1.08-.08.33-.04.63-.12.91-.22.28-.1.54-.24.78-.41.55-.4.97-.88,1.25-1.45.29-.57.43-1.24.43-2.03v-4.16h-11.52v4.16c0,.79.14,1.46.43,2.03.29.57.7,1.05,1.25,1.45.25.17.51.31.78.41.28.1.58.18.91.22.33.04.69.07,1.08.08.39.01.83.02,1.3.02s.91,0,1.3-.02ZM258.93,78.22c-.33-.01-.61-.03-.85-.06-.24-.03-.43-.08-.59-.14-.16-.06-.3-.14-.43-.25-.47-.38-.71-.94-.71-1.68v-1.72h7.51v1.72c0,.74-.24,1.3-.71,1.68-.13.11-.28.19-.44.25-.16.06-.36.11-.59.14-.23.03-.51.05-.84.06-.33.01-.72.02-1.17.02s-.84,0-1.17-.02ZM265.97,85.4c0,.8-.1,1.49-.31,2.09-.21.59-.55,1.14-1.04,1.63l-1.41-1.42c.31-.31.52-.65.63-1.02.11-.37.16-.81.16-1.34,0-.6-.14-1.05-.43-1.34-.29-.29-.63-.44-1.03-.44-.33,0-.61.11-.83.34-.11.12-.2.26-.28.43-.08.17-.13.37-.16.62l-.21,1.38c-.08.53-.18.97-.32,1.31-.14.35-.33.64-.58.89-.29.31-.64.54-1.04.68-.4.14-.87.21-1.38.21-.56,0-1.06-.11-1.49-.32-.43-.22-.8-.52-1.09-.9-.3-.38-.52-.84-.68-1.36-.16-.52-.23-1.09-.23-1.69,0-.87.11-1.65.33-2.34.22-.69.62-1.31,1.19-1.87l1.46,1.46c-.37.37-.62.79-.76,1.26-.14.47-.21.98-.21,1.5,0,.68.12,1.19.37,1.54.25.35.6.52,1.07.52.4,0,.72-.12.95-.36.11-.12.19-.25.24-.4.05-.15.1-.36.15-.64l.21-1.38c.15-.98.47-1.73.95-2.23.53-.55,1.28-.83,2.27-.83.52,0,.99.09,1.42.27.43.18.79.45,1.1.79.31.35.55.77.72,1.26.17.5.26,1.06.26,1.68Z"/>
      <path class="cls-2" d="M161.46,55.3v-8.18c.02-.45.39-.81.83-.81s.82.35.83.81v8.19h-1.67ZM163.12,61.96h4.89v-16.19c0-.89-.71-1.6-1.59-1.6h-8.24c-.88,0-1.59.71-1.59,1.6v16.19h4.89v-4.46h1.65v4.46M117.35,54.46c0,.5-.4.84-.83.84h-.83v-9h.83c.43,0,.83.35.83.83v7.33h0ZM120.62,57.49c.88,0,1.6-.71,1.6-1.6v-10.12c0-.89-.68-1.6-1.57-1.6h-9.85v17.78h4.88v-4.47h4.94M145.94,44.18h-7.38c-.87,0-1.59.71-1.59,1.6v16.19h4.89v-14.85c0-.45.38-.82.83-.82s.83.35.83.81v14.86h4.87v-14.86c0-.46.38-.81.83-.81s.82.36.83.82v14.85h4.88v-16.19c0-.89-.71-1.6-1.58-1.6h-7.4ZM129.59,59.82c-.45-.02-.83-.37-.83-.83v-14.82s-4.87,0-4.87,0v16.34c0,.8.64,1.45,1.43,1.45h8.55c.8,0,1.45-.65,1.45-1.45v-16.34h-4.89v14.82c0,.45-.39.81-.83.83M150.5,25.47c.24-.04.65.85.89.76.26-.08.62-.83.97-.79.15.02.73,1.2.73,1.2,4.77.23,10.62,5.99,11.38,6.57.36.28,1.89,1.88,4.71,3.11,1.16.51,2.31.71,3.39.64,1.45-.1,3.05-1.37,4.03-3.09,1.24-2.15,1.77-5.89,5.34-8.01.5-.29,1.64-.97,2.29-.13.54.68.1,1.8-.46,2.34-.34.33-.98.67-2.17,1.25-.41.19-1.07.69-1.33.88-1.27.98-2.21,3.2-3.24,5.63,0,0-.44,1.19-2.38,2.49-.34.22-.03.38.32.85.45.6,1.37,3.08,1.26,6.83-.03.66.25.95.55,1.5.53.94,1.57.73,1.54,1.97-.02,1.65,1.19,2.01.8,2.77-.28.57-.18,1.1-.18,1.64,0,.28.14.68-.43.65-2.33-.13-2.17-3.27-2.13-4.35.05-.14-.06-.38-.09-.4-.11-.08-1.56-1.21-1.65-1.31-1.77-1.79-2.93-3.39-3.58-5.06-.42-1.1-.87-2.2-1.62-2.88-.85-.79-1.9-1.21-2.8-1.22-6.48-.03-7.81-2.88-9.58-4.29-.05-.03-.21-.13-.31-.14-.09.01-.18.13-.24.18-.68.72-1.37.95-2.3.95-2.18,0-4.54-1.92-4.96-1.49-.31.33-.04,1.02-.62,1.13-.85.17-1.72-.66-1.65-1.37.13-1.26,1.42-1.63,2.56-1.75.94-.1,1.7.15,1.87.17.53.07.62-.57.53-.97-.1-.44-.51-.54-.94-.67-.52-.16-1.1.28-1.5.14-.45-.15-.48-.39-.87-.73-.49-.42-1.05-.53-1.05-1.13,0-.54.67-.59.87-1.1.1-.24.06-.51.15-.66.23-.42.65-.39.99-.73.47-.46.7-1.35.94-1.39M192.45,51.28l6.21,10.54h-4l-4.5-7.96-2.28,2.7v5.26h-3.41v-17.49h3.41v7.61l6.19-7.61h4.18l-5.8,6.95ZM203.43,61.81h-3.41v-17.49h3.41v17.49ZM218.98,51.09c-.02-.6-.06-1.15-.12-1.65-.07-.5-.18-.96-.33-1.38-.16-.42-.37-.81-.63-1.19-.61-.84-1.34-1.47-2.2-1.9-.86-.43-1.89-.65-3.08-.65h-6.31v17.49h6.31c1.2,0,2.22-.22,3.08-.65.86-.43,1.59-1.07,2.2-1.9.26-.38.47-.77.63-1.19.16-.42.27-.88.33-1.38.07-.5.11-1.05.12-1.65.02-.6.02-1.26.02-1.98s0-1.38-.02-1.98ZM215.57,54.85c-.02.5-.05.93-.1,1.29-.05.36-.12.66-.21.9-.09.24-.22.45-.38.65-.57.72-1.42,1.08-2.55,1.08h-2.6v-11.4h2.6c1.13,0,1.98.36,2.55,1.08.16.2.29.42.38.66.09.25.16.55.21.9.05.35.08.78.1,1.28.02.5.02,1.09.02,1.78s0,1.28-.02,1.78ZM226.47,44.18c1.21,0,2.27.16,3.17.47.9.31,1.73.84,2.48,1.57l-2.16,2.14c-.47-.47-.99-.79-1.55-.96-.56-.16-1.24-.25-2.04-.25-.92,0-1.6.22-2.04.65-.44.43-.66.95-.66,1.56,0,.51.17.93.52,1.25.18.16.4.3.65.42.25.12.57.2.95.25l2.09.32c.8.11,1.47.28,1.99.49.52.21.97.51,1.35.88.47.44.82.97,1.03,1.58.21.61.32,1.31.32,2.1,0,.85-.16,1.61-.49,2.26-.33.66-.78,1.21-1.36,1.66-.58.45-1.27.79-2.06,1.03-.79.24-1.65.36-2.57.36-1.33,0-2.51-.17-3.55-.5-1.04-.34-1.99-.94-2.84-1.81l2.21-2.21c.56.56,1.19.94,1.92,1.15.72.21,1.48.32,2.28.32,1.03,0,1.81-.19,2.33-.57.52-.38.79-.92.79-1.62,0-.61-.18-1.09-.54-1.45-.18-.16-.38-.29-.6-.37-.22-.08-.54-.16-.97-.22l-2.09-.32c-1.49-.23-2.62-.71-3.39-1.45-.84-.8-1.25-1.95-1.25-3.44,0-.79.14-1.5.42-2.15.28-.65.68-1.2,1.2-1.67.52-.47,1.16-.83,1.92-1.09.75-.26,1.61-.39,2.56-.39Z"/>
    </g>
  </g>
</svg>