<?xml version="1.0" encoding="UTF-8"?>
<svg id="_레이어_2" data-name="레이어 2" xmlns="http://www.w3.org/2000/svg" viewBox="0 0 389.74 431.05">
  <defs>
    <style>
      .cls-1 {
        fill: #e30413;
      }
    </style>
  </defs>
  <g id="Layer_1" data-name="Layer 1">
    <g>
      <path class="cls-1" d="M389.74,67.12c0-37.05-30.06-67.12-67.15-67.12s-67.11,30.07-67.11,67.12c0,2.16.13,4.32.33,6.43-18.27-8.4-38.98-13.18-60.96-13.18s-42.67,4.78-60.93,13.18c.21-2.11.33-4.27.33-6.43C134.25,30.07,104.19,0,67.11,0S0,30.07,0,67.12s30.04,67.14,67.11,67.14c1.58,0,3.13-.13,4.71-.23-6.31,13.73-9.8,28.75-9.8,44.52v19.56c0,3.31-.2,6.73.07,10.08,0,1.82.05,3.67.2,5.57,3.63,45.52,50.12,67.33,91.24,55.94,19.09-5.29,31.7-23.88,53.2-14.7,5.71,2.44,11.05,6.66,16.59,9.57,28.04,14.77,69.92,8.88,90.32-16.24,8.49-10.45,13.41-24.39,13.81-38.29.53-4.22.2-8.65.2-12.81v-18.67c0-2.09-.07-4.16-.19-6.22-.79-13.5-4.13-26.38-9.59-38.29,1.56.1,3.13.23,4.71.23,37.08,0,67.15-30.07,67.15-67.14ZM173.62,224.75c-.07.11-.17.17-.26.25-.11.11-.23.22-.35.32-.24.21-.48.41-.73.61-.5.39-1.02.75-1.56,1.1-1.12.73-2.29,1.37-3.51,1.94-1.21.56-2.45,1.05-3.72,1.47-1.27.42-2.57.78-3.88,1.09-1.32.31-2.65.56-3.99.79-1.34.22-2.69.4-4.03.56-7.67.92-15.55.21-22.9-2.01-4.88-1.47-9.59-3.52-13.52-6.64-1.14-.91-2.21-1.91-3.2-3.02-.23-.26-.45-.54-.67-.81-.02-.03-.04-.05-.05-.09-.01-.04,0-.09.02-.13.62-1.54,1.83-2.99,2.93-4.26,2.33-2.69,5.2-4.79,8.44-6.45.04-.02.09-.04.13-.07,4.79-2.43,10.21-3.73,15.64-4,4.68-.23,9.42.3,13.9,1.62,5.21,1.54,9.92,4.66,13.82,8.19,1.57,1.42,3.02,2.94,4.34,4.57.93,1.16,1.69,2.37,2.46,3.62.25.4.49.82.71,1.24,0,.02.02.03.02.05,0,.02,0,.03-.02.04ZM278.28,220.4c-.22.27-.44.55-.67.81-.99,1.11-2.06,2.11-3.2,3.02-3.93,3.12-8.64,5.17-13.52,6.64-7.35,2.22-15.23,2.93-22.9,2.01-1.35-.16-2.69-.34-4.03-.56-1.34-.22-2.67-.48-3.99-.79-1.31-.31-2.61-.66-3.88-1.09-1.27-.42-2.52-.91-3.72-1.47-1.22-.57-2.39-1.21-3.51-1.94-.53-.35-1.06-.71-1.56-1.1-.25-.19-.49-.4-.73-.61-.12-.1-.23-.21-.35-.32-.09-.09-.19-.15-.26-.25,0-.01-.02-.03-.02-.04,0-.02,0-.04.02-.05.22-.42.46-.84.71-1.24.78-1.25,1.53-2.47,2.46-3.62,1.32-1.63,2.77-3.15,4.34-4.57,3.9-3.54,8.61-6.65,13.82-8.19,4.47-1.32,9.21-1.85,13.9-1.62,5.43.27,10.85,1.56,15.64,4,.04.02.09.04.13.07,3.24,1.66,6.11,3.75,8.44,6.45,1.1,1.27,2.31,2.72,2.93,4.26.02.04.03.09.02.13,0,.03-.03.06-.05.09Z"/>
      <g>
        <path class="cls-1" d="M126.08,311.4c.39.4.59.88.59,1.44v16.48c0,.57-.2,1.05-.59,1.44-.4.4-.88.59-1.44.59h-21.23c-.57,0-.85.28-.85.85v95.45c0,.57-.2,1.05-.59,1.44s-.88.59-1.44.59h-19.87c-.57,0-1.05-.2-1.44-.59-.4-.4-.59-.88-.59-1.44v-95.45c0-.57-.28-.85-.85-.85h-20.38c-.57,0-1.05-.2-1.44-.59-.4-.4-.59-.88-.59-1.44v-16.48c0-.56.2-1.05.59-1.44.4-.39.88-.59,1.44-.59h67.26c.57,0,1.05.2,1.44.59Z"/>
        <path class="cls-1" d="M168.12,421.88c-6.23-6.11-9.34-14.27-9.34-24.46v-54.35c0-10.19,3.11-18.34,9.34-24.46,6.22-6.11,14.55-9.17,24.97-9.17s18.77,3.06,25.05,9.17c6.28,6.11,9.43,14.27,9.43,24.46v54.35c0,10.19-3.14,18.34-9.43,24.46-6.29,6.11-14.64,9.17-25.05,9.17s-18.74-3.06-24.97-9.17ZM200.73,407.19c1.92-2.21,2.89-5.12,2.89-8.75v-56.39c0-3.62-.96-6.54-2.89-8.75-1.93-2.21-4.47-3.31-7.64-3.31s-5.69,1.1-7.56,3.31c-1.87,2.21-2.8,5.12-2.8,8.75v56.39c0,3.63.93,6.54,2.8,8.75,1.87,2.21,4.39,3.31,7.56,3.31s5.72-1.1,7.64-3.31Z"/>
        <path class="cls-1" d="M319.11,315.22c4.87,3.06,8.63,7.33,11.3,12.82,2.66,5.49,3.99,11.75,3.99,18.77,0,10.53-2.83,18.97-8.49,25.31-5.66,6.34-13.08,9.51-22.25,9.51h-12.74c-.57,0-.85.28-.85.85v45.18c0,.57-.2,1.05-.59,1.44s-.88.59-1.44.59h-19.87c-.57,0-1.05-.2-1.44-.59-.4-.4-.6-.88-.6-1.44v-114.99c0-.57.2-1.05.6-1.44s.88-.59,1.44-.59h34.31c6.23,0,11.78,1.53,16.65,4.59ZM307.14,358.79c2.21-2.77,3.31-6.59,3.31-11.46s-1.1-8.89-3.31-11.72c-2.21-2.83-5.13-4.25-8.75-4.25h-7.47c-.57,0-.85.28-.85.85v29.89c0,.57.28.85.85.85h7.47c3.62,0,6.54-1.38,8.75-4.16Z"/>
      </g>
    </g>
  </g>
</svg>