<?xml version="1.0" encoding="UTF-8"?>
<svg id="_레이어_2" data-name="레이어 2" xmlns="http://www.w3.org/2000/svg" viewBox="0 0 52.89 45.21">
  <defs>
    <style>
      .cls-1 {
        fill: #e72819;
      }
    </style>
  </defs>
  <g id="_레이어_2-2" data-name=" 레이어 2">
    <g id="Layer_1" data-name="Layer 1">
      <g>
        <path class="cls-1" d="M44.45,34.26h-23.92c-1.17,0-2.18-.81-2.44-1.95L11.94,5H2.5c-1.38,0-2.5-1.12-2.5-2.5S1.12,0,2.5,0h11.44c1.17,0,2.18.81,2.44,1.95l6.15,27.31h21.92c1.38,0,2.5,1.12,2.5,2.5s-1.12,2.5-2.5,2.5Z"/>
        <path class="cls-1" d="M20.23,45.21c-4.39,0-7.96-3.57-7.96-7.96s3.57-7.96,7.96-7.96,7.97,3.57,7.97,7.96-3.57,7.96-7.97,7.96ZM20.23,34.28c-1.63,0-2.96,1.33-2.96,2.96s1.33,2.96,2.96,2.96,2.97-1.33,2.97-2.96-1.33-2.96-2.97-2.96Z"/>
        <path class="cls-1" d="M44.67,45.2c-4.39,0-7.96-3.57-7.96-7.97s3.57-7.96,7.96-7.96,7.96,3.57,7.96,7.96-3.57,7.97-7.96,7.97ZM44.67,34.26c-1.63,0-2.96,1.33-2.96,2.96s1.33,2.97,2.96,2.97,2.96-1.33,2.96-2.97-1.33-2.96-2.96-2.96Z"/>
        <path class="cls-1" d="M43.56,25.72h-22.16c-1.08,0-2.02-.73-2.28-1.78L15.08,7.87c-.37-1.49.75-2.93,2.28-2.93h33.18c1.69,0,2.83,1.74,2.16,3.29l-6.98,16.07c-.37.86-1.22,1.42-2.16,1.42Z"/>
      </g>
    </g>
  </g>
</svg>