<?xml version="1.0" encoding="UTF-8"?>
<svg id="_레이어_2" data-name="레이어 2" xmlns="http://www.w3.org/2000/svg" viewBox="0 0 291.6 204.01">
  <defs>
    <style>
      .cls-1 {
        fill: #fff;
      }

      .cls-2 {
        opacity: .7;
      }
    </style>
  </defs>
  <g id="_레이어_2-2" data-name=" 레이어 2">
    <g id="Layer_1" data-name="Layer 1">
      <g class="cls-2">
        <path class="cls-1" d="M291.59,50.22c0-27.72-22.49-50.22-50.24-50.22s-50.21,22.5-50.21,50.22c0,1.62.1,3.23.25,4.81-13.67-6.28-29.16-9.86-45.61-9.86s-31.93,3.57-45.59,9.86c.16-1.58.25-3.19.25-4.81,0-27.72-22.49-50.22-50.23-50.22S0,22.5,0,50.22s22.47,50.23,50.21,50.23c1.18,0,2.34-.1,3.53-.17-4.72,10.27-7.33,21.51-7.33,33.31v14.63c0,2.48-.15,5.04.05,7.54,0,1.36.04,2.74.15,4.17,2.72,34.06,37.5,50.37,68.26,41.85,14.28-3.96,23.72-17.87,39.81-11,4.27,1.82,8.27,4.98,12.41,7.16,20.98,11.05,52.31,6.64,67.58-12.15,6.35-7.82,10.03-18.25,10.33-28.65.4-3.16.15-6.47.15-9.59v-13.97c0-1.56-.05-3.11-.14-4.66-.59-10.1-3.09-19.74-7.17-28.65,1.16.08,2.35.17,3.52.17,27.74,0,50.24-22.5,50.24-50.23h-.01ZM129.9,168.15c-.05.08-.13.13-.2.19-.09.08-.17.16-.26.24-.18.16-.36.31-.55.45-.37.29-.77.56-1.17.82-.84.54-1.72,1.03-2.63,1.45-.9.42-1.83.78-2.78,1.1s-1.92.58-2.9.81c-.99.23-1.98.42-2.99.59-1,.16-2.01.3-3.02.42-5.74.69-11.63.16-17.13-1.51-3.65-1.1-7.18-2.63-10.11-4.97-.85-.68-1.66-1.43-2.4-2.26-.17-.19-.34-.4-.5-.61-.02-.02-.03-.04-.04-.06,0-.03,0-.07.02-.1.46-1.15,1.37-2.24,2.19-3.19,1.74-2.02,3.89-3.58,6.31-4.82.03-.02.06-.03.1-.05,3.58-1.82,7.64-2.79,11.7-2.99,3.5-.17,7.05.22,10.4,1.21,3.9,1.16,7.42,3.48,10.34,6.13,1.17,1.06,2.26,2.2,3.24,3.42.7.86,1.26,1.77,1.84,2.71.19.3.37.61.53.93,0,0,0,.03,0,.04s0,.02,0,.03v.02ZM208.2,164.89c-.16.2-.33.42-.5.61-.74.83-1.54,1.58-2.4,2.26-2.94,2.33-6.46,3.86-10.11,4.97-5.5,1.66-11.4,2.19-17.13,1.51-1.01-.12-2.02-.26-3.02-.42s-2-.36-2.99-.59c-.98-.23-1.95-.5-2.9-.81-.95-.32-1.88-.68-2.78-1.1-.91-.42-1.79-.91-2.63-1.45-.4-.26-.79-.53-1.17-.82-.19-.15-.37-.3-.55-.45-.09-.08-.17-.16-.26-.24-.07-.07-.14-.11-.2-.19,0,0,0-.02,0-.03s0-.03,0-.04c.17-.31.34-.63.53-.93.58-.94,1.14-1.84,1.84-2.71.99-1.22,2.07-2.36,3.24-3.42,2.92-2.65,6.44-4.97,10.34-6.13,3.35-.99,6.89-1.38,10.4-1.21,4.06.2,8.12,1.17,11.7,2.99.03.02.06.03.1.05,2.42,1.24,4.57,2.81,6.31,4.82.82.95,1.73,2.04,2.19,3.19,0,.03.02.06.02.1,0,.02-.02.04-.04.06v-.02Z"/>
      </g>
    </g>
  </g>
</svg>