<svg width="24" height="20" viewBox="0 0 24 20" fill="none" xmlns="http://www.w3.org/2000/svg">
<g clip-path="url(#clip0_587_822)">
<path d="M12 19.9997C11.9468 19.9997 11.8936 19.989 11.8433 19.968C9.48264 18.9646 3.70263 16.0748 1.01354 10.9203C0.093091 9.15511 -0.214498 7.19944 0.148596 5.41382C0.548692 3.44285 1.83571 1.72242 3.59047 0.812042C5.64876 -0.255358 7.8967 -0.27123 9.759 0.76896C10.7008 1.29501 11.4756 2.07841 12 3.0211C12.525 2.07841 13.2997 1.29501 14.241 0.76896C16.1033 -0.27123 18.3512 -0.255358 20.409 0.812042C22.1643 1.72299 23.4513 3.44285 23.8514 5.41382C24.2139 7.19944 23.9069 9.15511 22.9859 10.9203C20.2968 16.0748 14.5168 18.9652 12.1561 19.968C12.1064 19.989 12.0526 19.9997 11.9994 19.9997H12ZM6.79239 0.772928C5.8517 0.772928 4.885 1.01328 3.95876 1.49398C2.41099 2.29722 1.27488 3.81867 0.920458 5.56461C0.592055 7.18073 0.874204 8.95841 1.71487 10.5694C4.23108 15.3923 9.62891 18.1659 12.0006 19.1937C14.3728 18.1659 19.7701 15.3917 22.2863 10.5694C23.127 8.95784 23.4091 7.18073 23.0807 5.56461C22.7263 3.81924 21.5902 2.29722 20.0418 1.49398C18.2269 0.552419 16.2548 0.532579 14.6313 1.43899C13.5963 2.01719 12.7933 2.95704 12.37 4.0851C12.3134 4.23702 12.1659 4.33792 12.0006 4.33792C11.8358 4.33792 11.6884 4.23702 11.6311 4.0851C11.2079 2.95704 10.4048 2.01719 9.36989 1.43899C8.5749 0.994571 7.69608 0.772928 6.79239 0.772928Z" fill="#A3A3A3"/>
</g>
<defs>
<clipPath id="clip0_587_822">
<rect width="24" height="19.9997" fill="white"/>
</clipPath>
</defs>
</svg>
