<svg width="24" height="20" viewBox="0 0 24 20" fill="none" xmlns="http://www.w3.org/2000/svg">
<g clip-path="url(#clip0_587_821)">
<path d="M22.5019 10.7465C20.0401 15.587 14.8515 18.5936 11.7422 19.9493C8.63293 18.5936 3.44433 15.587 0.98251 10.7465C0.125054 9.06087 -0.220033 7.12704 0.143186 5.29378C0.506406 3.46051 1.66801 1.72724 3.42093 0.79443C5.17386 -0.138375 7.34382 -0.364225 9.27748 0.743261C10.4818 1.43316 11.3147 2.53124 11.7416 3.69871C12.1686 2.53182 13.0015 1.43375 14.2058 0.743261C16.1395 -0.364813 18.3094 -0.138375 20.0624 0.79443C21.8153 1.72724 22.9775 3.45992 23.3407 5.29378C23.7039 7.12704 23.3588 9.06087 22.5014 10.7465H22.5019Z" fill="#E72819"/>
</g>
<defs>
<clipPath id="clip0_587_821">
<rect width="24" height="19.9493" fill="white"/>
</clipPath>
</defs>
</svg>
