<svg width="200" height="45" viewBox="0 0 200 45" fill="none" xmlns="http://www.w3.org/2000/svg">
<rect x="0.5" y="0.5" width="199" height="44" rx="5.5" fill="white" stroke="#03C75A"/>
<path d="M112.94 22.2004H115.27V23.8405H109.15V30.3804H107.08V23.8405H101.03V22.2004H110.97C111.25 20.8404 111.39 19.0704 111.39 17.1404H102.78V15.4805H113.44C113.45 18.0205 113.29 20.3904 112.94 22.2004Z" fill="#03C75A"/>
<path d="M123.2 26.2799H116.82V16.5199H123.2V26.2799ZM121.26 18.1099H118.771V24.6899H121.26V18.1099ZM127.76 30.3899V22.4799H126.49V29.6599H124.541V14.9099H126.49V20.8199H127.76V14.6299H129.74V30.3899H127.76Z" fill="#03C75A"/>
<path d="M131.57 20.0201V18.3701H140.71V20.0201H131.57ZM136.15 20.5701C138.41 20.5701 139.95 21.9902 139.95 23.9702C139.95 25.9002 138.41 27.3701 136.15 27.3701C133.89 27.3701 132.35 25.9702 132.35 23.9702C132.35 22.0402 133.89 20.5701 136.15 20.5701ZM133.781 15.6602H138.64V17.2902H133.781V15.6602ZM136.15 25.6801C137.3 25.6801 137.94 24.9901 137.94 23.9601C137.94 22.9201 137.18 22.2302 136.15 22.2302C135.12 22.2302 134.36 22.9201 134.36 23.9601C134.37 24.9901 135.11 25.6801 136.15 25.6801ZM143.97 21.0101H146.16V22.7202H143.97V30.3801H141.88V14.6201H143.97V21.0101Z" fill="#03C75A"/>
<path d="M148.09 27.5399L146.82 25.9799C150.27 24.4099 152.62 21.1199 152.9 17.9899H147.771V16.2699H155.13C155.01 21.0299 152.9 24.9199 148.09 27.5399ZM157.91 30.3899V14.6299H159.98V30.3899H157.91Z" fill="#03C75A"/>
<path d="M92.3799 17.4703L89.6899 23.6003L86.6499 17.4703H84.3098L88.6199 25.9803L86.8398 29.9503H89.1099L94.6499 17.4703H92.3799ZM83.01 26.9503H80.78V26.0602C79.98 26.7502 79.0099 27.1403 77.8499 27.1403C75.1899 27.1403 73.0999 24.9703 73.0999 22.2103C73.0999 19.4403 75.1799 17.2803 77.8499 17.2803C79.0099 17.2803 79.97 17.6603 80.78 18.3603V17.4703H83.01V26.9503ZM81.04 22.2103C81.04 20.4203 79.7899 19.0703 78.1399 19.0703C76.4899 19.0703 75.24 20.4303 75.24 22.2103C75.24 24.0003 76.4899 25.3503 78.1399 25.3503C79.7999 25.3503 81.04 24.0003 81.04 22.2103ZM62.0498 29.9503H64.3699V26.1503C65.1499 26.7903 66.09 27.1503 67.2 27.1503C69.86 27.1503 71.95 24.9803 71.95 22.2203C71.95 19.4503 69.87 17.2903 67.2 17.2903C66.04 17.2903 65.08 17.6702 64.27 18.3702V17.4803H62.04V29.9503H62.0498ZM66.9199 19.0703C68.5699 19.0703 69.8198 20.4303 69.8198 22.2103C69.8198 24.0003 68.5699 25.3503 66.9199 25.3503C65.2699 25.3503 64.02 23.9903 64.02 22.2103C64.02 20.4203 65.2599 19.0703 66.9199 19.0703Z" fill="#03C75A"/>
<path d="M57.8901 22.5001C57.8901 27.8401 53.5602 32.1701 48.2102 32.1701C42.8702 32.1701 38.5303 27.8401 38.5303 22.5001C38.5303 17.1601 42.8602 12.8301 48.2102 12.8301C53.5602 12.8301 57.8901 17.1601 57.8901 22.5001ZM49.8401 17.9501V22.8201L46.4602 17.9501H43.6702V27.0401H46.6001V22.1701L49.9802 27.0401H52.7703V17.9501H49.8401Z" fill="#03C75A"/>
</svg>
