<svg width="200" height="45" viewBox="0 0 200 45" fill="none" xmlns="http://www.w3.org/2000/svg">
<rect x="0.5" y="0.5" width="199" height="44" rx="22" fill="white" stroke="#03C75A"/>
<path d="M117.35 22.8995L116.34 21.2196C119.15 20.8296 121.59 19.2695 122.14 17.0095H117.1V15.2896H124.44C124.42 19.7496 120.86 22.1595 117.35 22.8995ZM119.01 30.2795V26.0396H127.3V24.9396H118.92V23.2996H129.35V27.5396H121.09V28.6196H129.84V30.2795H119.01ZM127.3 22.5095V21.1696H124.35V19.6096H127.3V18.2795H124.63V16.7196H127.3V14.6196H129.35V22.5095H127.3Z" fill="#03C75A"/>
<path d="M138.24 26.7396C137.21 26.0896 135.89 24.4796 135.5 23.0796C135.13 24.5496 133.79 26.3696 132.51 27.0896L131.25 25.6896C133.5 24.1996 134.5 21.9596 134.5 18.8496V18.0896H131.85V16.4396H138.96V18.0896H136.5V18.8096C136.5 21.8896 137.53 24.1296 139.4 25.2496L138.24 26.7396ZM139.97 29.6595V21.7496H137.92V20.0496H139.97V14.9196H141.9V29.6495H139.97V29.6595ZM143.1 30.3795V14.6196H145.06V30.3795H143.1Z" fill="#03C75A"/>
<path d="M107.68 17.4698L104.99 23.5999L101.94 17.4698H99.5996L103.91 25.9799L102.13 29.9498H104.4L109.94 17.4698H107.68ZM98.3098 26.9498H96.0798V26.0598C95.2798 26.7498 94.3097 27.1398 93.1497 27.1398C90.4897 27.1398 88.3997 24.9698 88.3997 22.2098C88.3997 19.4498 90.4797 17.2798 93.1497 17.2798C94.3097 17.2798 95.2698 17.6599 96.0798 18.3599V17.4698H98.3098V26.9498ZM96.3398 22.2098C96.3398 20.4198 95.0897 19.0698 93.4397 19.0698C91.7897 19.0698 90.5398 20.4298 90.5398 22.2098C90.5398 23.9998 91.7897 25.3499 93.4397 25.3499C95.0897 25.3499 96.3398 23.9898 96.3398 22.2098ZM77.3496 29.9498H79.6697V26.1498C80.4497 26.7898 81.3898 27.1498 82.4998 27.1498C85.1598 27.1498 87.2498 24.9798 87.2498 22.2198C87.2498 19.4598 85.1698 17.2898 82.4998 17.2898C81.3398 17.2898 80.3798 17.6699 79.5698 18.3699V17.4799H77.3398V29.9498H77.3496ZM82.2197 19.0598C83.8697 19.0598 85.1196 20.4198 85.1196 22.1998C85.1196 23.9898 83.8697 25.3398 82.2197 25.3398C80.5697 25.3398 79.3198 23.9798 79.3198 22.1998C79.3098 20.4198 80.5597 19.0598 82.2197 19.0598Z" fill="#03C75A"/>
<path d="M73.1899 22.4999C73.1899 27.8399 68.86 32.1698 63.51 32.1698C58.17 32.1698 53.8301 27.8399 53.8301 22.4999C53.8301 17.1599 58.16 12.8198 63.51 12.8198C68.86 12.8198 73.1899 17.1499 73.1899 22.4999ZM65.1299 17.9498V22.8198L61.75 17.9498H58.97V27.0398H61.8999V22.1698L65.28 27.0398H68.0701V17.9498H65.1299Z" fill="#03C75A"/>
</svg>
