<svg width="200" height="45" viewBox="0 0 200 45" fill="none" xmlns="http://www.w3.org/2000/svg">
<rect width="200" height="45" rx="6" fill="#00DE5A"/>
<path d="M125.91 17.4703L123.22 23.6003L120.18 17.4703H117.84L122.15 25.9803L120.37 29.9503H122.64L128.18 17.4703H125.91ZM116.54 26.9503H114.31V26.0602C113.51 26.7502 112.54 27.1403 111.38 27.1403C108.72 27.1403 106.63 24.9703 106.63 22.2103C106.63 19.4403 108.71 17.2803 111.38 17.2803C112.54 17.2803 113.5 17.6603 114.31 18.3603V17.4703H116.54V26.9503ZM114.57 22.2103C114.57 20.4203 113.32 19.0703 111.67 19.0703C110.02 19.0703 108.77 20.4303 108.77 22.2103C108.77 24.0003 110.02 25.3503 111.67 25.3503C113.32 25.3503 114.57 24.0003 114.57 22.2103ZM95.5803 29.9503H97.9004V26.1503C98.6804 26.7903 99.6202 27.1503 100.73 27.1503C103.39 27.1503 105.48 24.9803 105.48 22.2203C105.48 19.4503 103.4 17.2903 100.73 17.2903C99.5702 17.2903 98.6103 17.6702 97.8003 18.3702V17.4803H95.5703V29.9503H95.5803ZM100.45 19.0703C102.1 19.0703 103.35 20.4303 103.35 22.2103C103.35 24.0003 102.1 25.3503 100.45 25.3503C98.8002 25.3503 97.5503 23.9903 97.5503 22.2103C97.5403 20.4203 98.7902 19.0703 100.45 19.0703Z" fill="black"/>
<path d="M91.4202 22.5001C91.4202 27.8401 87.0902 32.1701 81.7502 32.1701C76.4102 32.1701 72.0703 27.8401 72.0703 22.5001C72.0703 17.1601 76.4002 12.8301 81.7502 12.8301C87.0902 12.8301 91.4202 17.1601 91.4202 22.5001ZM83.3604 17.9501V22.8201L79.9802 17.9501H77.1902V27.0401H80.1204V22.1701L83.5002 27.0401H86.2903V17.9501H83.3604Z" fill="black"/>
</svg>
