<svg width="200" height="45" viewBox="0 0 200 45" fill="none" xmlns="http://www.w3.org/2000/svg">
<rect width="200" height="45" rx="22.5" fill="black"/>
<path d="M125.91 17.4698L123.22 23.5999L120.18 17.4698H117.84L122.15 25.9799L120.37 29.9498H122.64L128.18 17.4698H125.91ZM116.54 26.9498H114.31V26.0598C113.51 26.7498 112.54 27.1399 111.38 27.1399C108.72 27.1399 106.63 24.9698 106.63 22.2098C106.63 19.4498 108.71 17.2798 111.38 17.2798C112.54 17.2798 113.5 17.6599 114.31 18.3599V17.4698H116.54V26.9498ZM114.57 22.2098C114.57 20.4198 113.32 19.0698 111.67 19.0698C110.02 19.0698 108.77 20.4298 108.77 22.2098C108.77 23.9998 110.02 25.3499 111.67 25.3499C113.32 25.3499 114.57 23.9998 114.57 22.2098ZM95.5803 29.9498H97.9004V26.1498C98.6804 26.7898 99.6202 27.1498 100.73 27.1498C103.39 27.1498 105.48 24.9798 105.48 22.2198C105.48 19.4598 103.4 17.2898 100.73 17.2898C99.5702 17.2898 98.6103 17.6699 97.8003 18.3699V17.4799H95.5703V29.9498H95.5803ZM100.45 19.0698C102.1 19.0698 103.35 20.4298 103.35 22.2098C103.35 23.9998 102.1 25.3499 100.45 25.3499C98.8002 25.3499 97.5503 23.9898 97.5503 22.2098C97.5403 20.4198 98.7902 19.0698 100.45 19.0698Z" fill="white"/>
<path d="M91.4202 22.4999C91.4202 27.8399 87.0902 32.1698 81.7502 32.1698C76.4102 32.1698 72.0703 27.8399 72.0703 22.4999C72.0703 17.1599 76.4002 12.8198 81.7502 12.8198C87.0902 12.8298 91.4202 17.1599 91.4202 22.4999ZM83.3604 17.9498V22.8198L79.9802 17.9498H77.1902V27.0398H80.1204V22.1698L83.5002 27.0398H86.2903V17.9498H83.3604Z" fill="white"/>
</svg>
