<svg width="200" height="45" viewBox="0 0 200 45" fill="none" xmlns="http://www.w3.org/2000/svg">
<rect width="200" height="45" rx="6" fill="#00DE5A"/>
<path d="M117.35 22.8999L116.34 21.2198C119.15 20.8298 121.59 19.2699 122.14 17.0099H117.1V15.2899H124.44C124.42 19.7599 120.86 22.1599 117.35 22.8999ZM119.01 30.2799V26.0399H127.3V24.9398H118.92V23.2998H129.35V27.5399H121.09V28.6199H129.84V30.2799H119.01ZM127.3 22.5199V21.1798H124.35V19.6199H127.3V18.2899H124.63V16.7299H127.3V14.6299H129.35V22.5199H127.3Z" fill="black"/>
<path d="M138.24 26.7399C137.21 26.0899 135.89 24.4798 135.5 23.0798C135.13 24.5498 133.79 26.3698 132.51 27.0898L131.25 25.6898C133.5 24.1998 134.5 21.9599 134.5 18.8499V18.0898H131.85V16.4398H138.96V18.0898H136.5V18.8098C136.5 21.8898 137.53 24.1299 139.4 25.2499L138.24 26.7399ZM139.97 29.6599V21.7499H137.92V20.0498H139.97V14.9199H141.9V29.6499H139.97V29.6599ZM143.1 30.3899V14.6299H145.06V30.3899H143.1Z" fill="black"/>
<path d="M107.68 17.4702L104.99 23.6002L101.94 17.4702H99.5996L103.91 25.9802L102.13 29.9502H104.4L109.94 17.4702H107.68ZM98.3098 26.9502H96.0798V26.0602C95.2798 26.7502 94.3097 27.1403 93.1497 27.1403C90.4897 27.1403 88.3997 24.9702 88.3997 22.2102C88.3997 19.4402 90.4797 17.2803 93.1497 17.2803C94.3097 17.2803 95.2698 17.6602 96.0798 18.3602V17.4702H98.3098V26.9502ZM96.3398 22.2102C96.3398 20.4202 95.0897 19.0702 93.4397 19.0702C91.7897 19.0702 90.5398 20.4302 90.5398 22.2102C90.5398 24.0002 91.7897 25.3502 93.4397 25.3502C95.0897 25.3502 96.3398 24.0002 96.3398 22.2102ZM77.3496 29.9502H79.6697V26.1503C80.4497 26.7903 81.3898 27.1503 82.4998 27.1503C85.1598 27.1503 87.2498 24.9802 87.2498 22.2202C87.2498 19.4502 85.1698 17.2903 82.4998 17.2903C81.3398 17.2903 80.3798 17.6702 79.5698 18.3702V17.4802H77.3398V29.9502H77.3496ZM82.2197 19.0702C83.8697 19.0702 85.1196 20.4302 85.1196 22.2102C85.1196 24.0002 83.8697 25.3502 82.2197 25.3502C80.5697 25.3502 79.3198 23.9902 79.3198 22.2102C79.3098 20.4202 80.5597 19.0702 82.2197 19.0702Z" fill="black"/>
<path d="M73.1899 22.5001C73.1899 27.8401 68.86 32.1801 63.51 32.1801C58.17 32.1801 53.8301 27.8501 53.8301 22.5001C53.8301 17.1501 58.16 12.8301 63.51 12.8301C68.86 12.8301 73.1899 17.1601 73.1899 22.5001ZM65.1299 17.9501V22.8201L61.75 17.9501H58.97V27.0402H61.8999V22.1702L65.28 27.0402H68.0701V17.9501H65.1299Z" fill="black"/>
</svg>
