<svg width="200" height="45" viewBox="0 0 200 45" fill="none" xmlns="http://www.w3.org/2000/svg">
<rect x="0.5" y="0.5" width="199" height="44" rx="22" fill="white" stroke="#03C75A"/>
<path d="M128.24 22.1902H130.57V23.8302H124.45V30.3701H122.38V23.8302H116.33V22.1902H126.27C126.55 20.8302 126.69 19.0601 126.69 17.1301H118.08V15.4702H128.74C128.75 18.0202 128.59 20.3902 128.24 22.1902Z" fill="#03C75A"/>
<path d="M138.5 26.2802H132.12V16.5201H138.5V26.2802ZM136.56 18.1101H134.07V24.6902H136.56V18.1101ZM143.06 30.3801V22.4702H141.79V29.6501H139.84V14.9001H141.79V20.8102H143.06V14.6201H145.04V30.3801H143.06Z" fill="#03C75A"/>
<path d="M107.68 17.4703L104.99 23.6002L101.94 17.4703H99.5996L103.91 25.9802L102.13 29.9503H104.4L109.94 17.4703H107.68ZM98.3098 26.9503H96.0798V26.0603C95.2798 26.7503 94.3097 27.1403 93.1497 27.1403C90.4897 27.1403 88.3997 24.9703 88.3997 22.2103C88.3997 19.4503 90.4797 17.2803 93.1497 17.2803C94.3097 17.2803 95.2698 17.6602 96.0798 18.3602V17.4703H98.3098V26.9503ZM96.3398 22.2103C96.3398 20.4203 95.0897 19.0703 93.4397 19.0703C91.7897 19.0703 90.5398 20.4303 90.5398 22.2103C90.5398 24.0003 91.7897 25.3502 93.4397 25.3502C95.0897 25.3502 96.3398 23.9903 96.3398 22.2103ZM77.3496 29.9503H79.6697V26.1503C80.4497 26.7903 81.3898 27.1503 82.4998 27.1503C85.1598 27.1503 87.2498 24.9803 87.2498 22.2203C87.2498 19.4603 85.1698 17.2903 82.4998 17.2903C81.3398 17.2903 80.3798 17.6702 79.5698 18.3702V17.4802H77.3398V29.9503H77.3496ZM82.2197 19.0603C83.8697 19.0603 85.1196 20.4203 85.1196 22.2003C85.1196 23.9903 83.8697 25.3403 82.2197 25.3403C80.5697 25.3403 79.3198 23.9803 79.3198 22.2003C79.3098 20.4203 80.5597 19.0603 82.2197 19.0603Z" fill="#03C75A"/>
<path d="M73.1899 22.5002C73.1899 27.8402 68.86 32.1703 63.51 32.1703C58.17 32.1703 53.8301 27.8402 53.8301 22.5002C53.8301 17.1602 58.16 12.8203 63.51 12.8203C68.86 12.8203 73.1899 17.1502 73.1899 22.5002ZM65.1299 17.9503V22.8203L61.75 17.9503H58.97V27.0403H61.8999V22.1703L65.28 27.0403H68.0701V17.9503H65.1299Z" fill="#03C75A"/>
</svg>
