<svg width="200" height="45" viewBox="0 0 200 45" fill="none" xmlns="http://www.w3.org/2000/svg">
<rect width="200" height="45" rx="22.5" fill="black"/>
<path d="M112.94 22.2H115.27V23.84H109.15V30.38H107.08V23.84H101.03V22.2H110.97C111.25 20.84 111.39 19.07 111.39 17.14H102.78V15.48H113.44C113.45 18.02 113.29 20.39 112.94 22.2Z" fill="white"/>
<path d="M123.2 26.2798H116.82V16.5198H123.2V26.2798ZM121.26 18.1099H118.771V24.6898H121.26V18.1099ZM127.76 30.3899V22.4799H126.49V29.6598H124.541V14.9098H126.49V20.8198H127.76V14.6299H129.74V30.3899H127.76Z" fill="white"/>
<path d="M131.57 20.02V18.3701H140.71V20.02H131.57ZM136.15 20.5701C138.41 20.5701 139.95 21.9901 139.95 23.9701C139.95 25.9001 138.41 27.3701 136.15 27.3701C133.89 27.3701 132.35 25.9701 132.35 23.9701C132.35 22.0401 133.89 20.5701 136.15 20.5701ZM133.781 15.66H138.64V17.29H133.781V15.66ZM136.15 25.6801C137.3 25.6801 137.94 24.9901 137.94 23.9601C137.94 22.9201 137.18 22.2301 136.15 22.2301C135.12 22.2301 134.36 22.9201 134.36 23.9601C134.37 24.9901 135.11 25.6801 136.15 25.6801ZM143.97 21.0101H146.16V22.7201H143.97V30.3801H141.88V14.6201H143.97V21.0101Z" fill="white"/>
<path d="M148.09 27.5398L146.82 25.9799C150.27 24.4099 152.62 21.1199 152.9 17.9899H147.771V16.2698H155.13C155.01 21.0298 152.9 24.9198 148.09 27.5398ZM157.91 30.3899V14.6299H159.98V30.3899H157.91Z" fill="white"/>
<path d="M92.3799 17.4698L89.6899 23.5999L86.6499 17.4698H84.3098L88.6199 25.9799L86.8398 29.9498H89.1099L94.6499 17.4698H92.3799ZM83.01 26.9498H80.78V26.0598C79.98 26.7498 79.0099 27.1399 77.8499 27.1399C75.1899 27.1399 73.0999 24.9698 73.0999 22.2098C73.0999 19.4498 75.1799 17.2798 77.8499 17.2798C79.0099 17.2798 79.97 17.6599 80.78 18.3599V17.4698H83.01V26.9498ZM81.04 22.2098C81.04 20.4198 79.7899 19.0698 78.1399 19.0698C76.4899 19.0698 75.24 20.4298 75.24 22.2098C75.24 23.9998 76.4899 25.3499 78.1399 25.3499C79.7999 25.3499 81.04 23.9998 81.04 22.2098ZM62.0498 29.9498H64.3699V26.1498C65.1499 26.7898 66.09 27.1498 67.2 27.1498C69.86 27.1498 71.95 24.9798 71.95 22.2198C71.95 19.4598 69.87 17.2898 67.2 17.2898C66.04 17.2898 65.08 17.6699 64.27 18.3699V17.4799H62.04V29.9498H62.0498ZM66.9199 19.0698C68.5699 19.0698 69.8198 20.4298 69.8198 22.2098C69.8198 23.9998 68.5699 25.3499 66.9199 25.3499C65.2699 25.3499 64.02 23.9898 64.02 22.2098C64.02 20.4198 65.2599 19.0698 66.9199 19.0698Z" fill="white"/>
<path d="M57.8901 22.4999C57.8901 27.8399 53.5602 32.1698 48.2102 32.1698C42.8702 32.1698 38.5303 27.8399 38.5303 22.4999C38.5303 17.1599 42.8602 12.8198 48.2102 12.8198C53.5602 12.8298 57.8901 17.1599 57.8901 22.4999ZM49.8401 17.9498V22.8198L46.4602 17.9498H43.6702V27.0398H46.6001V22.1698L49.9802 27.0398H52.7703V17.9498H49.8401Z" fill="white"/>
</svg>
