<svg width="200" height="45" viewBox="0 0 200 45" fill="none" xmlns="http://www.w3.org/2000/svg">
<rect x="0.5" y="0.5" width="199" height="44" rx="5.5" fill="white" stroke="black"/>
<path d="M112.94 22.1902H115.27V23.8302H109.15V30.3701H107.08V23.8302H101.03V22.1902H110.97C111.25 20.8302 111.39 19.0601 111.39 17.1301H102.78V15.4702H113.44C113.45 18.0202 113.29 20.3902 112.94 22.1902Z" fill="black"/>
<path d="M123.2 26.2802H116.82V16.5201H123.2V26.2802ZM121.26 18.1101H118.771V24.6902H121.26V18.1101ZM127.76 30.3801V22.4702H126.49V29.6501H124.541V14.9001H126.49V20.8102H127.76V14.6201H129.74V30.3801H127.76Z" fill="black"/>
<path d="M131.57 20.0201V18.3701H140.71V20.0201H131.57ZM136.15 20.5702C138.41 20.5702 139.95 21.9902 139.95 23.9702C139.95 25.9002 138.41 27.3701 136.15 27.3701C133.89 27.3701 132.35 25.9702 132.35 23.9702C132.35 22.0402 133.89 20.5702 136.15 20.5702ZM133.781 15.6501H138.64V17.2802H133.781V15.6501ZM136.15 25.6802C137.3 25.6802 137.94 24.9902 137.94 23.9602C137.94 22.9202 137.18 22.2301 136.15 22.2301C135.12 22.2301 134.36 22.9202 134.36 23.9602C134.37 24.9902 135.11 25.6802 136.15 25.6802ZM143.97 21.0101H146.16V22.7202H143.97V30.3801H141.88V14.6201H143.97V21.0101Z" fill="black"/>
<path d="M148.09 27.5402L146.82 25.9801C150.27 24.4101 152.62 21.1201 152.9 17.9901H147.771V16.2701H155.13C155.01 21.0301 152.9 24.9202 148.09 27.5402ZM157.91 30.3801V14.6201H159.98V30.3801H157.91Z" fill="black"/>
<path d="M92.3799 17.4703L89.6899 23.6002L86.6499 17.4703H84.3098L88.6199 25.9802L86.8398 29.9503H89.1099L94.6499 17.4703H92.3799ZM83.01 26.9503H80.78V26.0603C79.98 26.7503 79.0099 27.1403 77.8499 27.1403C75.1899 27.1403 73.0999 24.9703 73.0999 22.2103C73.0999 19.4503 75.1799 17.2803 77.8499 17.2803C79.0099 17.2803 79.97 17.6602 80.78 18.3602V17.4703H83.01V26.9503ZM81.04 22.2103C81.04 20.4203 79.7899 19.0703 78.1399 19.0703C76.4899 19.0703 75.24 20.4303 75.24 22.2103C75.24 24.0003 76.4899 25.3502 78.1399 25.3502C79.7999 25.3502 81.04 23.9903 81.04 22.2103ZM62.0498 29.9503H64.3699V26.1503C65.1499 26.7903 66.09 27.1503 67.2 27.1503C69.86 27.1503 71.95 24.9803 71.95 22.2203C71.95 19.4603 69.87 17.2903 67.2 17.2903C66.04 17.2903 65.08 17.6702 64.27 18.3702V17.4802H62.04V29.9503H62.0498ZM66.9199 19.0603C68.5699 19.0603 69.8198 20.4203 69.8198 22.2003C69.8198 23.9903 68.5699 25.3403 66.9199 25.3403C65.2699 25.3403 64.02 23.9803 64.02 22.2003C64.02 20.4203 65.2599 19.0603 66.9199 19.0603Z" fill="black"/>
<path d="M57.8901 22.5002C57.8901 27.8402 53.5602 32.1703 48.2102 32.1703C42.8702 32.1703 38.5303 27.8402 38.5303 22.5002C38.5303 17.1602 42.8602 12.8203 48.2102 12.8203C53.5602 12.8203 57.8901 17.1502 57.8901 22.5002ZM49.8401 17.9503V22.8203L46.4602 17.9503H43.6702V27.0403H46.6001V22.1703L49.9802 27.0403H52.7703V17.9503H49.8401Z" fill="black"/>
</svg>
