<svg width="200" height="45" viewBox="0 0 200 45" fill="none" xmlns="http://www.w3.org/2000/svg">
<rect width="200" height="45" rx="6" fill="#00DE5A"/>
<path d="M128.24 22.2004H130.57V23.8405H124.45V30.3804H122.38V23.8405H116.33V22.2004H126.27C126.55 20.8404 126.69 19.0704 126.69 17.1404H118.08V15.4805H128.74C128.75 18.0205 128.59 20.3904 128.24 22.2004Z" fill="black"/>
<path d="M138.5 26.2799H132.12V16.5199H138.5V26.2799ZM136.56 18.1099H134.07V24.6899H136.56V18.1099ZM143.06 30.3899V22.4799H141.79V29.6599H139.84V14.9099H141.79V20.8199H143.06V14.6299H145.04V30.3899H143.06Z" fill="black"/>
<path d="M107.68 17.4703L104.99 23.6003L101.94 17.4703H99.5996L103.91 25.9803L102.13 29.9503H104.4L109.94 17.4703H107.68ZM98.3098 26.9503H96.0798V26.0602C95.2798 26.7502 94.3097 27.1403 93.1497 27.1403C90.4897 27.1403 88.3997 24.9703 88.3997 22.2103C88.3997 19.4403 90.4797 17.2803 93.1497 17.2803C94.3097 17.2803 95.2698 17.6603 96.0798 18.3603V17.4703H98.3098V26.9503ZM96.3398 22.2103C96.3398 20.4203 95.0897 19.0703 93.4397 19.0703C91.7897 19.0703 90.5398 20.4303 90.5398 22.2103C90.5398 24.0003 91.7897 25.3503 93.4397 25.3503C95.0897 25.3503 96.3398 24.0003 96.3398 22.2103ZM77.3496 29.9503H79.6697V26.1503C80.4497 26.7903 81.3898 27.1503 82.4998 27.1503C85.1598 27.1503 87.2498 24.9803 87.2498 22.2203C87.2498 19.4503 85.1698 17.2903 82.4998 17.2903C81.3398 17.2903 80.3798 17.6702 79.5698 18.3702V17.4803H77.3398V29.9503H77.3496ZM82.2197 19.0703C83.8697 19.0703 85.1196 20.4303 85.1196 22.2103C85.1196 24.0003 83.8697 25.3503 82.2197 25.3503C80.5697 25.3503 79.3198 23.9903 79.3198 22.2103C79.3098 20.4203 80.5597 19.0703 82.2197 19.0703Z" fill="black"/>
<path d="M73.1899 22.5001C73.1899 27.8401 68.86 32.1701 63.51 32.1701C58.17 32.1701 53.8301 27.8401 53.8301 22.5001C53.8301 17.1601 58.16 12.8301 63.51 12.8301C68.86 12.8301 73.1899 17.1601 73.1899 22.5001ZM65.1299 17.9501V22.8201L61.75 17.9501H58.97V27.0401H61.8999V22.1701L65.28 27.0401H68.0701V17.9501H65.1299Z" fill="black"/>
</svg>
