<?xml version="1.0" encoding="UTF-8"?>
<svg id="_레이어_1" data-name="레이어 1" xmlns="http://www.w3.org/2000/svg" viewBox="0 0 310 28.46">
  <path d="M23.18,13.6c2.92,1.11,4.4,3.16,4.4,6.15,0,2.37-.87,4.24-2.57,5.58-.86.69-1.86,1.17-3.01,1.46-1.12.3-2.53.45-4.21.45H0v-.6c.47-.13.78-.31.96-.5.18-.21.26-.51.26-.9V3.23c0-.41-.08-.71-.26-.89-.18-.21-.49-.38-.96-.5v-.62h17.61c1.69,0,3.05.13,4.07.39,1.04.25,1.94.68,2.71,1.29,1.54,1.2,2.3,2.95,2.3,5.23,0,2.53-1.16,4.36-3.53,5.47ZM6.9,11.57h9.97c1.52,0,2.57-.23,3.16-.67.7-.51,1.02-1.3,1.02-2.36s-.32-1.88-.96-2.34c-.64-.46-1.69-.69-3.21-.69H6.9v6.05ZM6.9,22.96h9.65c1.78,0,3.08-.26,3.87-.75.9-.59,1.36-1.51,1.36-2.8s-.46-2.23-1.36-2.81c-.78-.48-2.08-.74-3.87-.74H6.9v7.1Z"/>
  <path d="M38.38,15.82v7.14h16.73c.38,0,.67-.1.87-.27.21-.18.38-.5.5-.96h.61v6.73h-.61c-.12-.46-.29-.79-.5-.95-.2-.19-.48-.27-.87-.27h-23.65v-.6c.47-.13.79-.31.97-.5.17-.21.26-.51.26-.9V3.23c0-.41-.09-.71-.26-.89-.18-.21-.5-.38-.97-.5v-.62h23.2c.37,0,.66-.08.87-.27.2-.18.35-.49.5-.94h.61v6.73h-.61c-.14-.47-.3-.76-.5-.96-.21-.17-.51-.25-.87-.25h-16.28v6.15h10.54c.39,0,.68-.08.89-.27.19-.17.36-.49.48-.94h.61v6.57h-.61c-.12-.44-.29-.77-.48-.95-.21-.18-.5-.26-.89-.26h-10.54Z"/>
  <path d="M84.31,13.6c2.91,1.11,4.38,3.16,4.38,6.15,0,2.37-.85,4.24-2.56,5.58-.86.69-1.87,1.17-2.99,1.46-1.15.3-2.54.45-4.22.45h-17.79v-.6c.45-.13.77-.31.95-.5.17-.21.26-.51.26-.9V3.23c0-.41-.09-.71-.26-.89-.19-.21-.5-.38-.95-.5v-.62h17.6c1.7,0,3.05.13,4.08.39,1.04.25,1.93.68,2.71,1.29,1.55,1.2,2.32,2.95,2.32,5.23,0,2.53-1.17,4.36-3.53,5.47ZM68.04,11.57h9.96c1.51,0,2.58-.23,3.16-.67.68-.51,1.02-1.3,1.02-2.36s-.32-1.88-.96-2.34c-.64-.46-1.71-.69-3.22-.69h-9.96v6.05ZM68.04,22.96h9.65c1.79,0,3.08-.26,3.86-.75.9-.59,1.34-1.51,1.34-2.8s-.44-2.23-1.34-2.81c-.77-.48-2.06-.74-3.86-.74h-9.65v7.1Z"/>
  <path d="M99.5,15.82v7.14h16.74c.39,0,.67-.1.89-.27.18-.18.34-.5.48-.96h.62v6.73h-.62c-.13-.46-.3-.79-.48-.95-.22-.19-.5-.27-.89-.27h-23.64v-.6c.47-.13.77-.31.94-.5.19-.21.28-.51.28-.9V3.23c0-.41-.09-.71-.28-.89-.18-.21-.47-.38-.94-.5v-.62h23.18c.38,0,.67-.08.87-.27.2-.18.36-.49.5-.94h.61v6.73h-.61c-.14-.47-.3-.76-.5-.96-.21-.17-.49-.25-.87-.25h-16.28v6.15h10.56c.39,0,.68-.08.88-.27.2-.17.38-.49.5-.94h.63v6.57h-.63c-.12-.44-.29-.77-.5-.95-.2-.18-.49-.26-.88-.26h-10.56Z"/>
  <path d="M133.25,25.24V3.23c0-.41-.1-.71-.27-.89-.18-.21-.5-.38-.95-.5v-.62h14.5c3.2,0,5.63.37,7.34,1.1,2.44,1.04,4.24,2.78,5.41,5.2.94,1.91,1.39,4.15,1.39,6.69,0,4.5-1.37,7.91-4.13,10.25-1.15,1.01-2.51,1.71-4.08,2.15-1.54.43-3.53.63-5.93.63h-14.5v-.6c.46-.13.77-.31.95-.5.17-.21.27-.51.27-.9ZM138.91,22.96h7.14c2.29,0,4-.31,5.14-.94,2.45-1.34,3.68-3.95,3.68-7.81,0-2.78-.67-4.92-1.99-6.41-.74-.83-1.64-1.4-2.68-1.76-1.05-.36-2.44-.51-4.16-.51h-7.14v17.44Z"/>
  <path d="M171.65,15.82v7.14h16.75c.37,0,.67-.1.86-.27.21-.18.38-.5.51-.96h.59v6.73h-.59c-.13-.46-.3-.79-.51-.95-.19-.19-.49-.27-.86-.27h-23.65v-.6c.46-.13.77-.31.95-.5.18-.21.26-.51.26-.9V3.23c0-.41-.08-.71-.26-.89-.18-.21-.5-.38-.95-.5v-.62h23.2c.37,0,.66-.08.85-.27.22-.18.38-.49.51-.94h.62v6.73h-.62c-.14-.47-.29-.76-.51-.96-.18-.17-.48-.25-.85-.25h-16.3v6.15h10.57c.38,0,.68-.08.88-.27.19-.17.36-.49.48-.94h.63v6.57h-.63c-.12-.44-.29-.77-.48-.95-.2-.18-.5-.26-.88-.26h-10.57Z"/>
  <path d="M211.07,16.67v8.59c0,.37.08.67.28.88.18.22.48.37.94.5v.6h-8.14v-.6c.46-.13.78-.31.96-.5.17-.21.26-.51.26-.88V3.23c0-.41-.09-.71-.26-.89-.18-.21-.5-.38-.96-.5v-.62h16.25c1.91,0,3.4.13,4.51.39,1.11.25,2.1.68,2.94,1.3.89.65,1.57,1.51,2.07,2.55.49,1.11.72,2.25.72,3.47,0,1.76-.45,3.28-1.4,4.62-.81,1.13-1.89,1.93-3.23,2.42-1.34.46-3.2.7-5.61.7h-9.34ZM211.07,12.39h8.68c1.72,0,2.93-.2,3.63-.56.44-.24.81-.61,1.08-1.15.27-.53.4-1.1.4-1.75s-.14-1.19-.4-1.72c-.27-.54-.64-.91-1.08-1.15-.68-.38-1.89-.54-3.63-.54h-8.68v6.87Z"/>
  <path d="M235.26,25.24V3.19c0-.38-.1-.68-.27-.86-.17-.21-.51-.38-.97-.5v-.62h8.14v.62c-.45.1-.78.27-.95.49-.19.2-.27.5-.27.88v22.04c0,.39.09.69.29.9.17.22.49.37.94.5v.6h-8.14v-.6c.47-.13.81-.31.97-.5.17-.21.27-.51.27-.9Z"/>
  <path d="M253.26,9.42v15.82c0,.39.08.69.26.9.19.19.5.37.96.5v.6h-7.63v-.6c.43-.13.76-.31.93-.5.2-.21.26-.51.26-.9V3.19c0-.38-.06-.68-.26-.86-.16-.21-.49-.38-.93-.5v-.62h8.82v.62c-.55.13-.82.43-.82.87,0,.31.18.64.54,1l14.35,14.93V3.19c0-.38-.08-.68-.27-.86-.17-.21-.5-.38-.95-.5v-.62h7.65v.62c-.46.13-.78.3-.95.5-.18.18-.27.48-.27.86v22.04c0,.39.09.69.27.9.17.19.49.37.95.5v.6h-8.22v-.6c.54-.13.82-.4.82-.83,0-.26-.32-.69-.95-1.35l-14.57-15.04Z"/>
  <path d="M294.99.76c4.53,0,8.15,1.24,10.8,3.68,2.81,2.57,4.21,5.89,4.21,9.95,0,2.48-.67,4.82-2.02,6.98-2.65,4.21-6.96,6.32-12.96,6.32-4.5,0-8.08-1.22-10.73-3.68-1.44-1.3-2.53-2.88-3.25-4.69-.64-1.62-.97-3.32-.97-5.11,0-2.59.66-4.99,1.99-7.15,2.57-4.13,6.87-6.23,12.92-6.3ZM295,5.18c-2.48,0-4.55.74-6.2,2.2-1.95,1.75-2.94,4.02-2.94,6.83s.99,5.1,2.94,6.85c1.65,1.48,3.75,2.22,6.25,2.22s4.57-.73,6.22-2.22c.97-.88,1.73-1.95,2.25-3.21.45-1.13.69-2.3.69-3.51,0-2.95-.99-5.26-2.94-6.95-1.66-1.45-3.75-2.18-6.27-2.2Z"/>
</svg>