<?xml version="1.0" encoding="UTF-8"?>
<svg id="Layer_1" xmlns="http://www.w3.org/2000/svg" version="1.1" viewBox="0 0 841.89 595.28">
  <!-- Generator: Adobe Illustrator 29.8.0, SVG Export Plug-In . SVG Version: 2.1.1 Build 160)  -->
  <defs>
    <style>
      .st0 {
        fill: red;
      }
    </style>
  </defs>
  <path class="st0" d="M782.17,293.96c-1.95-.61-3.41.3-4.44,1.9-1.63,2.52-3.21,5.06-5.3,7.26-3.05,3.21-6.72,4.31-11.06,3.76-2.12-.27-2.64-.87-1.61-2.94,2.81-5.62,4.29-11.6,4.13-17.91-.3-11.07-6.09-18.55-16.22-20.85-4.94-1.12-9.88-.51-14.59,1.13-13,4.54-20.92,14.11-25.8,26.59-3.14,8.02-8.23,14.63-14.7,20.21-2.15,1.86-4.58,3.21-7.62,3.05-3.27-.18-4.79-2.02-3.94-5.2.5-1.86,1.35-3.62,2.02-5.43,2.56-6.86,6.11-13.38,7.41-20.7,2.11-11.87-5.75-20.51-17.5-19.18-3.33.38-6.25,1.83-9.05,3.63-.95-3.41-1.33-3.7-4.89-3.72-1.65,0-3.3.12-4.94-.03-4.3-.4-6.84,1.57-8.48,5.48-3.13,7.5-6.49,14.9-9.8,22.32-2.83,6.34-6.76,11.95-11.54,16.96-2.22,2.33-4.69,4.4-7.83,5.36-2.33.71-4.9,1.3-6.86-.61-1.78-1.73-.89-4-.17-6,1.01-2.82,2.07-5.62,3.27-8.37,4.28-9.84,8.62-19.65,12.94-29.47,1.87-4.25.95-5.62-3.75-5.64-1.94,0-3.87.04-5.81-.01-3.4-.1-5.66,1.39-7.02,4.53-3.8,8.79-7.54,17.6-11.59,26.28-3.71,7.95-8.94,11.7-16.44,10.47-3.12-.51-3.49-1.05-2.25-3.91,2.6-6,4.52-12.17,4.39-18.78-.32-16.21-13.79-23.58-27.68-15.2-.66.4-1.21,1.27-2.22.96.1-3.48-.66-4.29-4.15-4.33-2.13-.03-4.26.04-6.39-.01-3.29-.08-5.53,1.42-6.84,4.39-.59,1.33-1.15,2.66-1.77,3.98-3.97,8.38-6.81,17.31-11.84,25.17-7.13,11.13-16.83,18.05-30.66,17.6-6.52-.21-10.98-3.62-12.67-9.56-1.02-3.57-.5-4.28,3.11-4.62,5.6-.53,11.12-1.48,16.43-3.39,6.6-2.38,12.49-5.84,16.22-12.04,5.62-9.33,1.22-19.62-9.35-22.12-5.09-1.2-10.06-.48-14.79,1.48-12.33,5.11-20.51,14.38-25.24,26.62-2.72,7.05-7.03,12.85-12.17,18.17-1.47,1.53-3.16,2.86-5.1,3.81-2.54,1.25-5.23,2.01-7.64.04-2.54-2.07-1.08-4.6-.17-6.91,5.38-13.69,11.7-26.97,17.62-40.42,1.6-3.63,2.9-8.2,5.13-11.47,1.95-2.86,4.35-2.51,7.42-2.47,3.96.05,7.93.02,11.89-.09,7.76-.2,15.51-.66,23.25-1.18,15.49-1.04,30.97-2.36,46.5-2.46,13.44-.09,26.74,1.4,39.98,3.6,2.21.37,4.55.4,6.78.17,2.03-.22,3.9-1.24,4.26-3.57.29-1.9-.92-3.28-2.29-4.32-3.5-2.64-7.62-3.67-11.86-4.51-21.65-4.28-43.17-.75-64.71,1.01-11.54.94-23.02,2.38-34.55,3.39-5.77.51-11.55.71-17.33,1.11-.93,0-3.26.29-3.88-.78-.6-1.02.62-3.46,1.04-4.39,1.62-3.63.53-5.27-3.47-5.3-2.23-.02-4.46.05-6.68-.01-3.31-.1-5.44,1.38-6.75,4.42-2.95,6.82-6.02,13.59-9.08,20.42-1.55,3.47-3.14,6.93-4.82,10.63-7.59-8.69-16.49-8.16-25.51-4.37-11.27,4.73-18.75,13.42-23.49,24.53-1.1,2.58-2.12,5.17-3.71,7.52-7.29,10.77-16.82,17.53-30.39,17.07-6.6-.22-11.28-3.86-12.77-9.84-.82-3.28-.31-4.03,2.96-4.31,4.73-.41,9.41-1.2,13.96-2.52,6.62-1.92,12.64-4.95,17.13-10.36,4.15-4.99,5.67-10.63,2.88-16.74-2.72-5.95-8.02-8.06-14.17-8.45-3.83-.24-7.55.5-11.05,1.98-12.69,5.38-20.96,14.95-25.6,27.73-1.54,4.25-3.87,7.76-7.37,10.53-2.6,2.05-5.53,2.63-8.75,1.78-1.72-.46-2.35-1.08-1.39-3.04,3.36-6.88,5.17-14.13,4.5-21.88-.9-10.44-8.27-16.85-18.53-15.94-4.16.37-7.71,2.37-11.67,5.03.43-1.15.57-1.61.76-2.04,3.98-8.81,7.97-17.61,11.95-26.42,1.82-4.03.81-5.67-3.5-5.7-2.13-.02-4.26.03-6.39,0-3.16-.06-5.36,1.36-6.63,4.23-1.37,3.09-2.77,6.18-4.09,9.29-5.78,13.62-12.64,26.79-17.41,40.81-1.96,5.76-5.1,10.6-9.08,14.99-6.83,7.51-15.33,11.27-25.55,10.89-6.83-.26-11.89-4.53-12.77-10.48-.36-2.43.22-3.57,2.87-3.71,4.54-.24,9.02-1.08,13.41-2.31,7.84-2.19,14.88-5.72,19.43-12.79,6-9.33,1.46-20.06-9.34-22.48-5-1.12-9.89-.44-14.51,1.49-13.02,5.45-21.29,15.38-26.04,28.45-2.11,5.83-6.09,10-11.34,13.09-1.39.81-2.17.81-2.43-1.19-.85-6.58-2.77-12.85-6.13-18.61-.83-1.43-.81-2.26.65-3.33,8.57-6.31,13.95-14.76,15.69-25.24,2.73-16.42-4.82-30.82-20.89-35.85-16.44-5.15-31.96-2.15-46.43,6.73-7.15,4.39-12.77,10.33-16.36,18.02-.99,2.11-1.15,4.27,1.01,5.69,2.2,1.45,3.85-.05,5.27-1.59,2.1-2.27,4-4.75,6.22-6.89,10.2-9.83,22-15.79,36.61-14.11,7.93.91,13.99,4.81,17.38,12.3,4.44,9.79,1.38,24.81-6.42,32.06-1.15,1.07-1.85.87-2.91.03-4.09-3.25-8.65-5.4-13.9-6.09-6.15-.81-12.15,2.94-13.42,8.55-1.27,5.62,2.14,10.71,8.44,12.66,4.17,1.29,8.43,1.33,12.64.58,2.16-.39,2.86.22,3.41,2.22,1.42,5.16,2.23,10.37,2.36,15.72.05,2.12-.47,3.17-2.81,3.3-7.53.39-15.07.82-22.58,1.5-6.9.62-13.6,2.17-19.19,6.62-6.81,5.42-10.19,12.4-8.47,21.16,1.61,8.2,7.04,13.3,14.83,15.55,13.88,4.01,26.68,1.12,38.14-7.36,9.76-7.23,14.81-17.4,16.72-29.21.29-1.78.99-2.66,2.7-3.23,3.03-1.02,5.91-2.49,8.35-4.59,1.55-1.34,2.1-.94,2.76.8,2.7,7.17,7.96,11.55,15.32,13.3,12.26,2.92,23.57.35,34.07-6.34,3.33-2.13,6.11-4.93,9.01-7.79,3.75,13.55,13.51,15.39,22.06,14.6,9.21-.85,17.03-4.91,23.39-11.6,1.33-1.39,2.35-1.74,4.23-.98,6.49,2.64,12.77,1.7,18.51-2.1,2.07-1.36,2.53-.8,3.29,1.17,2.67,6.91,7.8,11.34,14.93,12.97,15.41,3.52,28.86-.58,40.44-11.19.75-.68,1.23-1.72,2.41-1.96.25.68.5,1.31.7,1.95,2.75,8.48,8.79,12.6,17.57,11.84,6.43-.56,11.83-3.44,16.45-7.82,1.45-1.37,2.44-1.59,3.62.27,3.38,5.32,8.64,7.32,14.58,7.54,8.93.33,15.69-4.06,21.32-10.55,1.1-1.27,2.19-2.54,3.48-4.03,2.88,7.37,7.89,11.88,15.04,13.92,7.68,2.2,15.32,1.43,22.91-.62,3.58-.97,6.8-2.85,10.66-4.45-1.44,3.27-2.65,6.01-3.86,8.75-2.23,5.05-3.94,9.61-7.83,13.61-3,3.08-6.52,5.61-10.34,7.58-18.81,9.7-41.38,6.46-61.74,7.72-6,.37-12.07-.04-18.11-.09-48.58-1.25-97.09-4.49-145.71-4.88-24.78-.2-49.59-.43-73.82,5.32-9.57,2.27-18.92,5.23-25.82,12.06-2.71,2.68-6.33,6.43-2.79,9.71,4.06,3.76,6.37-1.03,8.9-3.25,6.32-5.51,14.36-6.94,22.69-7.68,43.54-3.89,86.93.87,130.38,2.14,50.46,1.47,100.97,4.12,151.18-3.21,9.12-1.33,17.97-3.68,26.26-7.39,15.79-7.06,20.42-23.73,26.85-38.41.73-1.67,1.21-2.39,2.94-.73,4.67,4.49,10.45,5.71,16.67,4.71,8.45-1.36,15.3-5.78,21.12-11.86,1.32-1.38,2.34-1.72,4.22-.99,5.21,2.04,10.6,2.18,15.9.33,1.82-.64,2.52-.36,2.91,1.55.9,4.41,3.67,7.39,7.73,9.14,5.99,2.57,12.06,2.33,18.09.17,1.73-.62,3.22-1.58,4.48.75.45.84,1.69.79,2.68.77,1.84-.02,3.69-.14,5.52.02,4.51.4,7.21-1.59,8.93-5.74,3.38-8.13,6.9-16.2,10.62-24.17,3.12-6.7,7.03-12.94,12.82-17.76,2.33-1.94,4.85-3.52,8.03-3.69,3.59-.2,4.91,1.29,3.98,4.72-.45,1.68-.99,3.34-1.63,4.95-2.63,6.65-5.73,13.15-7.9,19.95-5.05,15.76,5.88,23.04,18.2,21.58,7.39-.88,13.23-4.62,17.99-10.2.97-1.13,1.9-2.29,2.94-3.54.4.61.62.83.7,1.1,3.27,10.09,12.91,14.38,23.66,13.53,8.4-.67,15-4.74,20.63-10.64,1.22-1.28,2.28-1.75,4-1.17,12.48,4.21,24.73-3.44,30.06-15.83.37-.87.54-1.88.57-2.83.07-1.97-.52-3.71-2.61-4.36ZM500.21,277.03c1.68-.4,3.88-.88,5.11.95,1.33,1.98.15,3.89-.93,5.63-1.04,1.68-2.52,2.92-4.19,3.94-5.71,3.49-12.06,4.94-19.35,6.07,4.41-8.68,10.41-14.43,19.36-16.59ZM365.85,276.87c3.69-.06,4.93,1.78,3.41,5.15-.64,1.42-1.48,2.73-2.7,3.73-6.14,5.03-13.54,6.52-21.23,7.78,2.36-8.03,12.99-16.53,20.52-16.66ZM231.02,278.04c1.89-.76,3.82-1.32,5.91-1.18,2.62.17,3.64,1.47,2.97,4.04-.47,1.82-1.47,3.4-2.88,4.61-6.11,5.27-13.63,6.72-21.91,8.1,3.66-7.53,8.67-12.67,15.9-15.56ZM155.51,283.48c-1.09,0-1.59.08-2.04-.02-1.66-.36-3.43-.9-3.14-3.01.27-2.02,2.09-1.92,3.65-1.89.48.01.98.05,1.42.21,1.81.67,4.45,1.5,4.25,3.26-.19,1.66-2.99,1.29-4.13,1.44ZM166.66,324.84c-4.09,14.76-16.48,24.22-30.03,24.33-2.57-.06-5.7-.54-8.5-2.3-4.92-3.09-5.74-8.51-1.95-12.93,3.11-3.64,7.4-5.24,11.81-6.38,8.99-2.33,18.27-3.03,27.43-4.42,1.74-.26,1.51.72,1.24,1.69ZM299.95,285.01c-5.17,3.42-6.68,8.82-5.49,14.51.81,3.86-.11,6.47-2.68,9.02-2.64,2.62-5.49,4.86-9.08,6.02-5.44,1.76-9.28-.74-9.76-6.38-.06-.67,0-1.35,0-2.03.11-11.77,9.93-25.18,20.22-27.71,2.93-.72,5.61-.48,7.55,2.12,1.23,1.66,1.49,2.95-.76,4.44ZM432.86,283.42c-3.81,13.61-10.33,25.26-24.14,31.07-5.25,2.21-8.13-.05-8.02-5.86.23-11.85,10.27-25.99,21.21-29.92,2.24-.81,4.53-1,6.85-.66,2.67.39,4.8,2.86,4.1,5.38ZM566.93,285.21c-4.59,2.65-6.79,9.54-5.24,15.8.6,2.41.01,4.03-1.54,5.75-5.2,5.77-11.47,9.06-17.53,9.05-4.27-.01-6.19-2.09-5.82-6.41.24-2.83,1.27-5.45,2.41-8.02,3.23-7.28,7.77-13.59,14-18.61,2.74-2.21,5.75-3.91,9.34-4.39,2.22-.29,4.03.34,5.28,2.24,1.16,1.77,1.64,3.13-.89,4.59ZM748.37,285.6c-5.44,3.9-7.88,10.32-5.82,16.87,1.18,3.76.21,6.28-2.42,8.69-2.89,2.65-5.88,5.01-10.09,5.08-5.32.09-8.54-2.68-9.12-7.99-.11-1.06-.14-2.12-.25-3.79.75-9.29,4.5-17.72,12.19-24.17,2.73-2.29,5.88-3.68,9.59-3.41,3.27.24,6.13,2.45,7.09,5.56.42,1.37.07,2.27-1.18,3.16Z"/>
  <path class="st0" d="M116.95,315.16c9.84-10.51,15.96-23.24,21.12-36.43,4.78-12.24,8.87-24.75,14.53-36.64.7-1.48,1.27-3.03,1.78-4.58.34-1.03.45-2.21-.44-3-.98-.86-2.27-.63-3.3-.11-1.45.75-2.84,1.67-4.13,2.68-4.02,3.14-7.06,7.15-9.83,11.37-7.02,10.72-12.03,22.5-17.77,33.89-4.76,9.43-9.63,18.79-17.44,26.19-3.29,3.12-7.04,5.34-11.62,6.1-5.71.94-10.94-3.07-11.3-8.86-.35-5.67,3.39-10.46,9.74-12.46,1.47-.46,3.03-.7,4.43-1.31,1.92-.84,3.17-2.39,2.79-4.58-.37-2.16-2.12-2.85-4.12-2.93-13.04-.51-27.59,11.23-24.17,28.15,1.97,9.72,10.83,15.93,25.09,15.93,8.32-.14,17.15-5.42,24.62-13.41Z"/>
  <path class="st0" d="M627.48,256.39c4.59-.07,8.1-3.72,8.1-8.41,0-4.82-3.36-8.2-8.16-8.21-4.64-.01-8.36,3.58-8.43,8.13-.07,4.54,3.95,8.56,8.5,8.49Z"/>
</svg>