<svg width="140" height="140" viewBox="0 0 140 140" fill="none" xmlns="http://www.w3.org/2000/svg">
<path d="M70 140C31.3367 140 0 108.663 0 70C0 31.3367 31.3367 0 70 0C108.663 0 140 31.3367 140 70C140 108.663 108.663 140 70 140Z" fill="#00DE5A"/>
<path d="M118.892 61.3119L113.789 72.9398L108.018 61.3119H103.577L111.759 77.443L108.384 84.972H112.693L123.201 61.3041H118.892V61.3119ZM101.112 79.2864H96.8961V77.6065C95.3717 78.921 93.5517 79.652 91.3428 79.652C86.295 79.652 82.3439 75.5453 82.3439 70.2953C82.3439 65.0453 86.295 60.9386 91.3428 60.9386C93.5439 60.9386 95.3717 61.6698 96.8961 62.9843V61.3041H101.112V79.2864ZM97.3862 70.2953C97.3862 66.9042 95.0217 64.3298 91.8795 64.3298C88.745 64.3298 86.3728 66.9042 86.3728 70.2953C86.3728 73.6864 88.7372 76.2608 91.8795 76.2608C95.0217 76.2608 97.3862 73.6864 97.3862 70.2953ZM61.375 84.972H65.7772V77.762C67.2628 78.9831 69.0283 79.652 71.1439 79.652C76.1917 79.652 80.1428 75.5453 80.1428 70.2953C80.1428 65.0453 76.1917 60.9386 71.1439 60.9386C68.9428 60.9386 67.115 61.6698 65.5906 62.9843V61.3041H61.375V84.972ZM70.6073 64.3376C73.7417 64.3376 76.1139 66.912 76.1139 70.3031C76.1139 73.6942 73.7495 76.2686 70.6073 76.2686C67.4728 76.2686 65.1006 73.6942 65.1006 70.3031C65.1006 66.912 67.465 64.3376 70.6073 64.3376Z" fill="black"/>
<path d="M53.4885 70.8477C53.4885 80.9821 45.2752 89.1955 35.1407 89.1955C25.0063 89.1955 16.793 80.9821 16.793 70.8477C16.793 60.7132 25.0063 52.5 35.1407 52.5C45.2752 52.5 53.4885 60.7132 53.4885 70.8477ZM38.2129 62.23V71.4543L31.8041 62.23H26.5152V79.4733H32.0685V70.2488L38.4774 79.4733H43.7663V62.23H38.2129Z" fill="black"/>
</svg>
