<svg width="140" height="140" viewBox="0 0 140 140" fill="none" xmlns="http://www.w3.org/2000/svg">
<path d="M140 0H0V140H140V0Z" fill="#00DE5A"/>
<path d="M118.892 61.3118L113.789 72.9397L108.018 61.3118H103.577L111.759 77.4429L108.384 84.9719H112.693L123.201 61.304H118.892V61.3118ZM101.112 79.2863H96.8961V77.6064C95.3717 78.9208 93.5517 79.6519 91.3428 79.6519C86.295 79.6519 82.3439 75.5452 82.3439 70.2952C82.3439 65.0452 86.295 60.9385 91.3428 60.9385C93.5439 60.9385 95.3717 61.6697 96.8961 62.9841V61.304H101.112V79.2863ZM97.3861 70.2952C97.3861 66.9041 95.0217 64.3297 91.8794 64.3297C88.745 64.3297 86.3728 66.9041 86.3728 70.2952C86.3728 73.6863 88.7372 76.2607 91.8794 76.2607C95.0217 76.2607 97.3861 73.6863 97.3861 70.2952ZM61.375 84.9719H65.7772V77.7619C67.2628 78.983 69.0283 79.6519 71.1439 79.6519C76.1917 79.6519 80.1428 75.5452 80.1428 70.2952C80.1428 65.0452 76.1917 60.9385 71.1439 60.9385C68.9428 60.9385 67.115 61.6697 65.5906 62.9841V61.304H61.375V84.9719ZM70.6072 64.3375C73.7417 64.3375 76.1139 66.9118 76.1139 70.303C76.1139 73.6941 73.7494 76.2684 70.6072 76.2684C67.4728 76.2684 65.1006 73.6941 65.1006 70.303C65.1006 66.9118 67.465 64.3375 70.6072 64.3375Z" fill="black"/>
<path d="M53.4885 70.8477C53.4885 80.9821 45.2752 89.1955 35.1407 89.1955C25.0063 89.1955 16.793 80.9821 16.793 70.8477C16.793 60.7132 25.0063 52.5 35.1407 52.5C45.2752 52.5 53.4885 60.7132 53.4885 70.8477ZM38.213 62.23V71.4543L31.8041 62.23H26.5152V79.4733H32.0685V70.2488L38.4774 79.4733H43.7663V62.23H38.213Z" fill="black"/>
</svg>
